<svg xmlns="http://www.w3.org/2000/svg" xmlns:xlink="http://www.w3.org/1999/xlink" width="270" height="976" viewBox="0 0 270 976"><svg viewBox="1806 2729 39.5 38" width="39.5" height="38" id="svg-archive" y="0"><g transform="translate(1816 2739)" fill="#acacac"><path d="M18 5.25H1.5A.76.76 0 0 0 .75 6v11.25a.761.761 0 0 0 .75.75H18a.76.76 0 0 0 .75-.75V6a.76.76 0 0 0-.75-.75zm-6.223 3.523a.72.72 0 0 1-.527.223h-3a.75.75 0 0 1 0-1.5h3a.746.746 0 0 1 .527 1.277zM19.277.223A.721.721 0 0 0 18.75 0h-18a.721.721 0 0 0-.527.223A.721.721 0 0 0 0 .75v3a.721.721 0 0 0 .223.527.721.721 0 0 0 .527.223h18a.76.76 0 0 0 .75-.75v-3a.721.721 0 0 0-.223-.527z"></path></g></svg><svg viewBox="1533 2138 36.623000000000005 37" width="36.623000000000005" height="37" id="svg-calendar-light" y="38"><g transform="translate(1543 2148)" fill="#fff"><path d="M6.005 9.378a.386.386 0 0 0-.386-.385H4.272a.386.386 0 0 0-.386.385v1.346a.386.386 0 0 0 .386.386h1.347a.386.386 0 0 0 .386-.386V9.378zM9.371 9.378a.386.386 0 0 0-.385-.385H7.639a.386.386 0 0 0-.386.385v1.346a.386.386 0 0 0 .386.386h1.344a.386.386 0 0 0 .385-.386zM12.736 9.378a.386.386 0 0 0-.386-.385h-1.346a.386.386 0 0 0-.386.385v1.346a.386.386 0 0 0 .386.386h1.346a.386.386 0 0 0 .386-.386zM6.005 12.745a.386.386 0 0 0-.386-.386H4.272a.386.386 0 0 0-.386.386v1.346a.386.386 0 0 0 .386.386h1.347a.386.386 0 0 0 .386-.386v-1.346zM9.371 12.745a.386.386 0 0 0-.385-.386H7.639a.386.386 0 0 0-.386.386v1.346a.386.386 0 0 0 .386.386h1.344a.386.386 0 0 0 .385-.386zM12.736 12.745a.385.385 0 0 0-.385-.386h-1.347a.386.386 0 0 0-.386.386v1.346a.386.386 0 0 0 .386.386h1.347a.386.386 0 0 0 .385-.386v-1.346z"></path><path d="M15.143 1.893v2.056a1.68 1.68 0 0 1-1.683 1.679h-1.062a1.688 1.688 0 0 1-1.693-1.679V1.886H5.918V3.95a1.688 1.688 0 0 1-1.693 1.679H3.163A1.68 1.68 0 0 1 1.48 3.95V1.893A1.531 1.531 0 0 0 0 3.416v12.052a1.531 1.531 0 0 0 1.524 1.533h13.575a1.533 1.533 0 0 0 1.524-1.533V3.416a1.531 1.531 0 0 0-1.48-1.523zm-.493 12.824a.659.659 0 0 1-.659.659H2.603a.659.659 0 0 1-.659-.659V8.492a.659.659 0 0 1 .659-.659h11.386a.659.659 0 0 1 .659.659v6.225z"></path><path d="M3.159 4.525h1.05a.577.577 0 0 0 .577-.577V.577A.577.577 0 0 0 4.21 0H3.16a.577.577 0 0 0-.577.577v3.371a.577.577 0 0 0 .576.577zM12.384 4.525h1.05a.577.577 0 0 0 .577-.577V.577A.577.577 0 0 0 13.435 0h-1.05a.577.577 0 0 0-.577.577v3.371a.577.577 0 0 0 .576.577z"></path></g></svg><svg viewBox="1251 874 52 52" width="52" height="52" id="svg-close" y="75"><g transform="translate(1096 385)"><circle fill="#acacac" cx="16" cy="16" r="16" transform="translate(165 499)"></circle><path fill="#535353" d="M183.3 515.256a.353.353 0 0 1 0-.511l5.479-5.479a.789.789 0 0 0 .221-.513.789.789 0 0 0-.219-.511l-1.023-1.023a.789.789 0 0 0-.511-.219.663.663 0 0 0-.511.219l-5.48 5.481a.353.353 0 0 1-.511 0l-5.48-5.481a.789.789 0 0 0-.512-.219.789.789 0 0 0-.511.219l-1.023 1.023a.789.789 0 0 0-.219.511.789.789 0 0 0 .219.511l5.481 5.48a.353.353 0 0 1 0 .511l-5.481 5.48a.706.706 0 0 0 0 1.023l1.023 1.023a.789.789 0 0 0 .511.219.789.789 0 0 0 .511-.219l5.48-5.481a.353.353 0 0 1 .511 0l5.479 5.479a.706.706 0 0 0 1.023 0l1.023-1.023a.706.706 0 0 0 0-1.023z"></path></g></svg><svg viewBox="1282 936 68 68" width="68" height="68" id="svg-email" y="127"><g transform="translate(1292 946)"><g transform="translate(12 15)" fill="#acacac"><path d="M2.3 5.812q.455.321 2.745 1.909t3.509 2.444q.134.094.569.409t.723.509q.288.194.7.435a4.041 4.041 0 0 0 .77.361 2.122 2.122 0 0 0 .67.121h.027a2.124 2.124 0 0 0 .67-.121 4.045 4.045 0 0 0 .77-.361q.408-.241.7-.435t.723-.509q.435-.315.569-.409l6.268-4.353a6.362 6.362 0 0 0 1.634-1.647A3.537 3.537 0 0 0 24 2.143 2.161 2.161 0 0 0 21.857 0H2.143A1.913 1.913 0 0 0 .556.7 2.7 2.7 0 0 0 0 2.437a3.128 3.128 0 0 0 .737 1.828A6.648 6.648 0 0 0 2.3 5.812z"></path><path d="M22.66 7.243q-4.392 2.973-6.669 4.621-.763.562-1.239.877a7.645 7.645 0 0 1-1.266.643 3.854 3.854 0 0 1-1.473.328h-.027a3.855 3.855 0 0 1-1.473-.328 7.649 7.649 0 0 1-1.266-.643q-.475-.315-1.239-.877Q6.2 10.543 1.353 7.243A7.094 7.094 0 0 1 0 6.08v10.634a2.063 2.063 0 0 0 .629 1.514 2.063 2.063 0 0 0 1.513.63h19.715A2.149 2.149 0 0 0 24 16.714V6.08a7.386 7.386 0 0 1-1.34 1.163z"></path></g><g fill="none" stroke="#acacac"><circle stroke="none" cx="24" cy="24" r="24"></circle><circle cx="24" cy="24" r="23.5"></circle></g></g></svg><svg viewBox="1361 2861 68 68" width="68" height="68" id="svg-facebook" y="195"><g transform="translate(1371 2871)"><path fill="#3b5998" d="M24 0A24 24 0 1 1 0 24 24 24 0 0 1 24 0z"></path><path fill="#fff" d="M26.922 16.522h3.093v-4.569h-3.636v.016c-4.406.156-5.309 2.632-5.388 5.234h-.009v2.282h-3v4.474h3v11.994h4.521V23.959h3.7l.715-4.474h-4.417v-1.379a1.473 1.473 0 0 1 1.421-1.584z"></path></g></svg><svg viewBox="1360 936 68 68" width="68" height="68" id="svg-feed" y="263"><g transform="translate(1370 946)"><g transform="translate(12 12)" fill="#acacac"><path d="M.009 0v4.6A19.411 19.411 0 0 1 19.386 24H24A24.026 24.026 0 0 0 .009 0z"></path><path d="M.003 8.153v4.6a11.142 11.142 0 0 1 7.932 3.294A11.175 11.175 0 0 1 11.223 24h4.619A15.863 15.863 0 0 0 .003 8.153z"></path><path d="M3.2 17.598a3.186 3.186 0 1 0 3.2 3.188 3.2 3.2 0 0 0-3.2-3.188z"></path></g><g fill="none" stroke="#acacac"><circle stroke="none" cx="24" cy="24" r="24"></circle><circle class="d" cx="24" cy="24" r="23.5"></circle></g></g></svg><svg viewBox="2514 373 30 32" width="30" height="32" id="svg-file" y="331"><g transform="translate(2524 383)" fill="#acacac"><path d="M9.469 2.969L7.031.531A1.9 1.9 0 0 0 6 .023V4h3.977a1.9 1.9 0 0 0-.508-1.031z"></path><path d="M5.754 5a.747.747 0 0 1-.75-.75V0H.754a.723.723 0 0 0-.531.219.723.723 0 0 0-.219.531v10.5a.747.747 0 0 0 .75.75h8.5a.747.747 0 0 0 .75-.75V5z"></path></g></svg><svg viewBox="1126 936 68 68" width="68" height="68" id="svg-github" y="363"><g transform="translate(1136 946)"><path fill="#acacac" d="M34.39 18.126a12.1 12.1 0 0 0-4.367-4.477A11.517 11.517 0 0 0 24 12a11.519 11.519 0 0 0-6.023 1.65 12.1 12.1 0 0 0-4.367 4.477A12.265 12.265 0 0 0 12 24.3a12.157 12.157 0 0 0 2.289 7.235 11.776 11.776 0 0 0 5.911 4.441.686.686 0 0 0 .625-.112.634.634 0 0 0 .2-.48l-.008-.865q-.008-.817-.008-1.425l-.359.064a4.474 4.474 0 0 1-.867.056 6.451 6.451 0 0 1-1.083-.112 2.4 2.4 0 0 1-1.047-.48 2.031 2.031 0 0 1-.685-.987l-.156-.369a4.021 4.021 0 0 0-.492-.817 1.9 1.9 0 0 0-.68-.609l-.109-.08a1.158 1.158 0 0 1-.2-.192.882.882 0 0 1-.141-.224q-.047-.112.078-.185a.991.991 0 0 1 .453-.072l.312.048a2.257 2.257 0 0 1 .773.384 2.561 2.561 0 0 1 .758.833 2.8 2.8 0 0 0 .867 1 1.809 1.809 0 0 0 1.023.344 4.338 4.338 0 0 0 .891-.08 3.055 3.055 0 0 0 .7-.24 2.621 2.621 0 0 1 .766-1.65 10.462 10.462 0 0 1-1.6-.288 6.291 6.291 0 0 1-1.469-.625 4.233 4.233 0 0 1-1.258-1.073 5.207 5.207 0 0 1-.82-1.682 8.184 8.184 0 0 1-.32-2.4 4.738 4.738 0 0 1 1.234-3.3 4.405 4.405 0 0 1 .109-3.267 2.142 2.142 0 0 1 1.344.216 9.29 9.29 0 0 1 1.3.617q.414.256.664.432a11.018 11.018 0 0 1 6 0l.594-.384a8.321 8.321 0 0 1 1.437-.7 2 2 0 0 1 1.266-.176 4.363 4.363 0 0 1 .125 3.267 4.738 4.738 0 0 1 1.235 3.3 8.276 8.276 0 0 1-.32 2.41 5 5 0 0 1-.828 1.682 4.393 4.393 0 0 1-1.266 1.065 6.3 6.3 0 0 1-1.469.625 10.451 10.451 0 0 1-1.6.289 2.892 2.892 0 0 1 .812 2.274v3.379a.646.646 0 0 0 .2.48.666.666 0 0 0 .617.112 11.774 11.774 0 0 0 5.913-4.444A12.159 12.159 0 0 0 36 24.3a12.275 12.275 0 0 0-1.61-6.174z"></path><g fill="none" stroke="#acacac"><circle cx="24" cy="24" r="24"></circle><circle cx="24" cy="24" r="23.5"></circle></g></g></svg><svg viewBox="1125 2861 68 68" width="68" height="68" id="svg-gplus" y="431"><g transform="translate(1135 2871)"><circle fill="#dc4e41" cx="24" cy="24" r="24"></circle><g transform="translate(8.35 15.165)"><path fill="#dc4e41" d="M.006 9.91a9.89 9.89 0 0 0 6.671 9.355c3.685 1.238 8.216.312 10.669-2.844a11.186 11.186 0 0 0 2-7.914c-3.156-.028-6.312-.019-9.463-.014-.005 1.124 0 2.244 0 3.369 1.89.052 3.78.028 5.67.066a5.467 5.467 0 0 1-3.213 3.746 6.25 6.25 0 1 1-4.21-11.76c2.027-.713 4.115.09 5.85 1.144.879-.822 1.7-1.7 2.509-2.589A9.948 9.948 0 0 0-.001 9.91zM25.492 5.657c-.009.94-.019 1.885-.024 2.825-.945.009-1.885.014-2.825.019v2.816c.94 0 1.885.009 2.825.019.009.94.009 1.88.019 2.825h2.816c.005-.945.009-1.885.019-2.83l2.825-.014V8.502c-.94 0-1.885-.009-2.825-.019-.005-.94-.014-1.885-.019-2.825z"></path><path fill="#fff" d="M.006 9.91a9.948 9.948 0 0 1 16.49-7.442c-.813.887-1.631 1.767-2.513 2.587-1.734-1.054-3.823-1.857-5.85-1.144a6.25 6.25 0 1 0 4.21 11.76 5.468 5.468 0 0 0 3.213-3.746c-1.89-.038-3.78-.014-5.67-.066 0-1.124-.009-2.244 0-3.369 3.151 0 6.307-.014 9.463.014a11.183 11.183 0 0 1-2 7.914c-2.452 3.156-6.983 4.082-10.669 2.844A9.89 9.89 0 0 1 .006 9.91zM25.492 5.657h2.809c.005.94.014 1.885.019 2.825.94.009 1.885.014 2.825.019v2.816l-2.825.014c-.009.945-.014 1.885-.019 2.83h-2.816c-.009-.945-.009-1.885-.019-2.825-.94-.01-1.885-.014-2.825-.019V8.501q1.411-.007 2.825-.019c.007-.94.016-1.885.026-2.825z"></path></g></g></svg><svg viewBox="2214 982 38.91 36" width="38.91" height="36" id="svg-heart" y="499"><g transform="translate(2224 992)"><path fill="#d43d21" d="M11.315 8.479c1.469-1.382 3.293-3.1 3.544-4.626a3.333 3.333 0 0 0-.511-2.646A3.291 3.291 0 0 0 11.929.016a2.968 2.968 0 0 0-.3-.016 3.52 3.52 0 0 0-2.182.785A3.517 3.517 0 0 0 7.267 0a2.969 2.969 0 0 0-.3.016 3.29 3.29 0 0 0-2.419 1.192 3.333 3.333 0 0 0-.511 2.646c.251 1.528 2.075 3.244 3.544 4.626 0 0 .733.736.953.925a1.189 1.189 0 0 0 1.828 0c.22-.19.953-.926.953-.926z"></path><path fill="#dec8ae" d="M6.854 10.857a4.559 4.559 0 0 0-2.473-.658.663.663 0 0 1-.28-.134l-.063-.042a1.19 1.19 0 0 1-.243-.206c-.134-.161-.286-.3-.414-.475a3.667 3.667 0 0 0-1.818-1.479c-.166-.08-.28-.1-.317-.217-.015-.053-.16-1.437-.186-1.67-.072-.668-.144-1.162-.526-1.3a.2.2 0 0 0-.241.054 2.621 2.621 0 0 0-.164.883S-.015 7.404.002 8.025a10.424 10.424 0 0 0 1.667 3.681 27.888 27.888 0 0 0 3.24 2.093 1.505 1.505 0 0 1 .628 1.027v.606a.488.488 0 0 0 .538.561h2.073c.606 0 .488-.548.489-.74v-.3-.033c.007-.2.041-.395.064-.591a2.231 2.231 0 0 0-.018-.815 4.864 4.864 0 0 0-1.829-2.657zM18.768 5.619a2.621 2.621 0 0 0-.164-.883.2.2 0 0 0-.241-.054c-.382.134-.454.629-.526 1.3-.026.232-.171 1.617-.186 1.67-.037.114-.151.137-.317.217a3.668 3.668 0 0 0-1.816 1.475c-.128.179-.28.314-.414.475a1.193 1.193 0 0 1-.243.206l-.063.042a.663.663 0 0 1-.28.134 4.559 4.559 0 0 0-2.473.658 4.863 4.863 0 0 0-1.83 2.666 2.231 2.231 0 0 0-.018.815c.024.2.057.393.064.591V15.264c0 .192-.118.74.489.74h2.073a.488.488 0 0 0 .538-.561v-.606a1.505 1.505 0 0 1 .628-1.027 29.259 29.259 0 0 0 3.24-2.093 16.081 16.081 0 0 0 1.667-3.681 18.42 18.42 0 0 0-.128-2.417z"></path></g></svg><svg viewBox="1204 936 68 68" width="68" height="68" id="svg-linkedin" y="535"><g transform="translate(1214 946)"><path fill="#acacac" d="M34.228 12H13.773a1.747 1.747 0 0 0-1.775 1.72v20.56A1.748 1.748 0 0 0 13.773 36h20.455a1.747 1.747 0 0 0 1.77-1.72V13.72a1.746 1.746 0 0 0-1.77-1.72zM19.276 32.09H15.65V21.254h3.626zm-1.813-12.316h-.024a1.878 1.878 0 1 1 .047-3.744 1.879 1.879 0 1 1-.023 3.744zM32.348 32.09h-3.625v-5.8c0-1.457-.525-2.451-1.836-2.451a1.981 1.981 0 0 0-1.86 1.318 2.422 2.422 0 0 0-.121.878v6.052h-3.625s.047-9.819 0-10.836h3.625v1.539A3.6 3.6 0 0 1 28.173 21c2.386 0 4.175 1.548 4.175 4.878zm-7.465-9.265l.023-.034v.034z"></path><g fill="none" stroke="#acacac"><circle cx="24" cy="24" r="24"></circle><circle cx="24" cy="24" r="23.5"></circle></g></g></svg><svg viewBox="1142 15 270 75.556" width="270" height="75.556" id="svg-logo" y="603"><g transform="translate(1149.622 -99.218)"><g transform="translate(2.378 124.218)"><path fill="#cecdcd" d="M14.917 14.331a6.891 6.891 0 0 0-2.571-2.47 6.923 6.923 0 0 0-3.2-.715 7.017 7.017 0 0 0-3.117.653 6.2 6.2 0 0 0-2.247 1.858 8.484 8.484 0 0 0-1.356 2.858 14.04 14.04 0 0 0-.445 3.654q0 4.532 1.639 6.676a5.7 5.7 0 0 0 4.777 2.123 6.621 6.621 0 0 0 3.623-1.041 9.891 9.891 0 0 0 2.894-2.919zM16.84.571v29.7h-1.053a.556.556 0 0 1-.607-.531l-.2-3.205a10.758 10.758 0 0 1-3.117 2.919 7.566 7.566 0 0 1-4.008 1.082 6.98 6.98 0 0 1-5.789-2.593Q.001 25.35.001 20.165a14.573 14.573 0 0 1 .567-4.144 10.015 10.015 0 0 1 1.7-3.348A7.973 7.973 0 0 1 5 10.427a8.335 8.335 0 0 1 3.765-.817 7.777 7.777 0 0 1 3.542.755 7.435 7.435 0 0 1 2.611 2.246V.571zM37.598 18.068a8.543 8.543 0 0 0-.466-2.919 6.1 6.1 0 0 0-1.275-2.2 5.475 5.475 0 0 0-1.984-1.368 6.261 6.261 0 0 0-2.51-.49 7.521 7.521 0 0 0-2.793.49 6.21 6.21 0 0 0-2.145 1.409 7.141 7.141 0 0 0-1.437 2.2 10.334 10.334 0 0 0-.729 2.879zm-13.44 1.245v.388a13.891 13.891 0 0 0 .526 4.022 8.375 8.375 0 0 0 1.5 2.919 6.225 6.225 0 0 0 2.348 1.756 7.71 7.71 0 0 0 3.077.592 9.4 9.4 0 0 0 2.631-.327 10.385 10.385 0 0 0 1.862-.755 11.976 11.976 0 0 0 1.214-.755 1.346 1.346 0 0 1 .648-.347.463.463 0 0 1 .4.2l.526.653a5.435 5.435 0 0 1-1.3 1.143 9.155 9.155 0 0 1-1.781.919 13.19 13.19 0 0 1-2.105.592 11.332 11.332 0 0 1-2.247.225 9.624 9.624 0 0 1-3.765-.715 8.088 8.088 0 0 1-2.915-2.123 9.779 9.779 0 0 1-1.882-3.389 15.108 15.108 0 0 1-.648-4.614 12.752 12.752 0 0 1 .617-4.018 9.35 9.35 0 0 1 1.781-3.185 8.185 8.185 0 0 1 2.854-2.1 9.377 9.377 0 0 1 3.846-.755 8.31 8.31 0 0 1 3.158.592 7.087 7.087 0 0 1 2.53 1.735 7.9 7.9 0 0 1 1.68 2.777 10.659 10.659 0 0 1 .627 3.8 1.092 1.092 0 0 1-.121.612.472.472 0 0 1-.4.163zM51.158 21.293a6.735 6.735 0 0 0 2.307-.367 4.9 4.9 0 0 0 1.7-1.062 4.507 4.507 0 0 0 1.053-1.61 5.714 5.714 0 0 0 .364-2.082 5.446 5.446 0 0 0-.385-2.082 4.35 4.35 0 0 0-1.073-1.633 4.668 4.668 0 0 0-1.7-1.041 6.5 6.5 0 0 0-2.267-.368 6.67 6.67 0 0 0-2.287.368 4.906 4.906 0 0 0-1.7 1.041 4.473 4.473 0 0 0-1.052 1.633 6.133 6.133 0 0 0 0 4.165 4.507 4.507 0 0 0 1.052 1.613 5.164 5.164 0 0 0 1.7 1.062 6.671 6.671 0 0 0 2.288.363zm7.533 10.351a2.226 2.226 0 0 0-.506-1.531 3.153 3.153 0 0 0-1.316-.919 7.547 7.547 0 0 0-1.923-.449q-1.073-.143-2.267-.2l-2.368-.122a18.637 18.637 0 0 1-2.247-.245 8.646 8.646 0 0 0-1.417.715 4.9 4.9 0 0 0-1.113.9 4.108 4.108 0 0 0-.729 1.1 3.274 3.274 0 0 0-.263 1.307 3.2 3.2 0 0 0 .445 1.654 4.038 4.038 0 0 0 1.336 1.327 7.381 7.381 0 0 0 2.166.9 11.88 11.88 0 0 0 2.935.327 11.164 11.164 0 0 0 2.854-.347 7.786 7.786 0 0 0 2.307-.98 4.83 4.83 0 0 0 1.538-1.511 3.468 3.468 0 0 0 .568-1.926zm2.1-20.783v.674q0 .449-.567.551l-3.077.225a5.972 5.972 0 0 1 .87 1.735 6.869 6.869 0 0 1 .3 2.082 6.61 6.61 0 0 1-.526 2.674 5.767 5.767 0 0 1-1.457 2.042 6.635 6.635 0 0 1-2.267 1.307 8.621 8.621 0 0 1-2.915.47 8.88 8.88 0 0 1-3.137-.531 4.431 4.431 0 0 0-1.35 1.164 2.183 2.183 0 0 0-.486 1.307 1.6 1.6 0 0 0 .607 1.347 4.237 4.237 0 0 0 1.619.694 15.356 15.356 0 0 0 2.287.265q1.3.061 2.631.143 1.336.061 2.611.245a7.927 7.927 0 0 1 2.287.653 3.917 3.917 0 0 1 1.619 1.286 3.494 3.494 0 0 1 .627 2.184 5.051 5.051 0 0 1-.627 2.429 6.373 6.373 0 0 1-1.822 2.062 9.228 9.228 0 0 1-2.854 1.429 12.037 12.037 0 0 1-3.765.551 13.835 13.835 0 0 1-3.724-.449 8.637 8.637 0 0 1-2.692-1.184 5.111 5.111 0 0 1-1.619-1.715 4.21 4.21 0 0 1-.546-2.082 3.925 3.925 0 0 1 1.053-2.756 6.947 6.947 0 0 1 2.874-1.817 4.045 4.045 0 0 1-1.639-1 2.613 2.613 0 0 1-.607-1.817 2.753 2.753 0 0 1 .162-.9 3.552 3.552 0 0 1 .486-.919 4.783 4.783 0 0 1 .789-.878 6.054 6.054 0 0 1 1.053-.735 6.1 6.1 0 0 1-2.247-2.225 6.455 6.455 0 0 1-.789-3.246 6.69 6.69 0 0 1 .506-2.654 5.943 5.943 0 0 1 1.478-2.062 6.712 6.712 0 0 1 2.267-1.327 8.861 8.861 0 0 1 2.955-.47 8.674 8.674 0 0 1 2.449.327 7.259 7.259 0 0 1 2.024.919zM67.341.571v29.7h-1.943V.571zM76.295 9.962v20.313h-1.922V9.962zm.83-7a1.542 1.542 0 0 1-.162.694 1.928 1.928 0 0 1-.385.551 1.83 1.83 0 0 1-.567.388 1.728 1.728 0 0 1-1.376 0 1.831 1.831 0 0 1-.567-.388 1.929 1.929 0 0 1-.385-.551 1.771 1.771 0 0 1 0-1.388 1.791 1.791 0 0 1 .385-.592 1.831 1.831 0 0 1 .567-.388 1.728 1.728 0 0 1 1.376 0 1.83 1.83 0 0 1 .567.388 1.79 1.79 0 0 1 .385.592 1.542 1.542 0 0 1 .162.691zM97.292 18.068a8.543 8.543 0 0 0-.466-2.919 6.1 6.1 0 0 0-1.275-2.2 5.475 5.475 0 0 0-1.984-1.368 6.261 6.261 0 0 0-2.51-.49 7.521 7.521 0 0 0-2.793.49 6.21 6.21 0 0 0-2.145 1.409 7.142 7.142 0 0 0-1.437 2.2 10.334 10.334 0 0 0-.729 2.879zm-13.44 1.245v.388a13.891 13.891 0 0 0 .526 4.022 8.376 8.376 0 0 0 1.5 2.919 6.225 6.225 0 0 0 2.348 1.756 7.71 7.71 0 0 0 3.077.592 9.4 9.4 0 0 0 2.631-.327 10.385 10.385 0 0 0 1.862-.755 11.98 11.98 0 0 0 1.214-.755 1.346 1.346 0 0 1 .648-.347.463.463 0 0 1 .4.2l.526.653a5.435 5.435 0 0 1-1.3 1.143 9.155 9.155 0 0 1-1.781.919 13.19 13.19 0 0 1-2.1.592 11.332 11.332 0 0 1-2.247.225 9.624 9.624 0 0 1-3.765-.715 8.089 8.089 0 0 1-2.915-2.123 9.779 9.779 0 0 1-1.882-3.389 15.107 15.107 0 0 1-.648-4.614 12.752 12.752 0 0 1 .607-4.022 9.35 9.35 0 0 1 1.781-3.185 8.185 8.185 0 0 1 2.854-2.1 9.376 9.376 0 0 1 3.846-.755 8.31 8.31 0 0 1 3.158.592 7.087 7.087 0 0 1 2.53 1.735 7.9 7.9 0 0 1 1.68 2.777 10.659 10.659 0 0 1 .627 3.8 1.092 1.092 0 0 1-.121.612.472.472 0 0 1-.4.163zM106.112 14.862a12.835 12.835 0 0 1 1.053-2.2 7.259 7.259 0 0 1 1.376-1.654 5.644 5.644 0 0 1 1.741-1.021 6.02 6.02 0 0 1 2.145-.367 6.23 6.23 0 0 1 1.235.122 2.97 2.97 0 0 1 1.073.388l-.162 1.347a.391.391 0 0 1-.385.327 3.1 3.1 0 0 1-.749-.143 4.738 4.738 0 0 0-1.3-.143 5.537 5.537 0 0 0-2.085.368 4.78 4.78 0 0 0-1.619 1.062 7.14 7.14 0 0 0-1.255 1.776 17.077 17.077 0 0 0-.972 2.409v13.148h-1.943V9.963h1.032a.67.67 0 0 1 .486.143.826.826 0 0 1 .182.49z"></path><path fill="#c53e3e" d="M128.705 21.334a26.081 26.081 0 0 0-3.643.388 9.4 9.4 0 0 0-2.368.694 3.118 3.118 0 0 0-1.275 1 2.186 2.186 0 0 0-.385 1.245 2.212 2.212 0 0 0 .769 1.9 3.4 3.4 0 0 0 2.044.572 5.917 5.917 0 0 0 2.652-.551 8.03 8.03 0 0 0 2.206-1.715zm-11.456-9.085a12.263 12.263 0 0 1 8.622-3.307 8.24 8.24 0 0 1 3.259.612 6.711 6.711 0 0 1 2.429 1.674 6.962 6.962 0 0 1 1.5 2.552 9.75 9.75 0 0 1 .526 3.266v13.229h-2.267a2.371 2.371 0 0 1-1.093-.2 1.536 1.536 0 0 1-.607-.878l-.445-1.511a19.76 19.76 0 0 1-1.538 1.266 9.439 9.439 0 0 1-1.559.9 7.894 7.894 0 0 1-1.741.551 9.269 9.269 0 0 1-2.024.2 8.125 8.125 0 0 1-2.429-.347 5.447 5.447 0 0 1-1.923-1.082 4.811 4.811 0 0 1-1.255-1.776 6.349 6.349 0 0 1-.445-2.47 4.865 4.865 0 0 1 .263-1.572 4.7 4.7 0 0 1 .85-1.511 7.415 7.415 0 0 1 1.558-1.347 10.07 10.07 0 0 1 2.328-1.1 19.706 19.706 0 0 1 3.239-.755 30.74 30.74 0 0 1 4.21-.367v-1.225a4.57 4.57 0 0 0-.891-3.1 3.228 3.228 0 0 0-2.571-1.021 6.147 6.147 0 0 0-2.024.286 7.867 7.867 0 0 0-1.4.653q-.607.347-1.113.633a2.115 2.115 0 0 1-1.093.286 1.471 1.471 0 0 1-.891-.265 2.43 2.43 0 0 1-.587-.653zM138.291 30.277V9.33h3.056a1.229 1.229 0 0 1 1.275.919l.324 1.552a12.615 12.615 0 0 1 1.133-1.123 7.9 7.9 0 0 1 1.275-.878 6.772 6.772 0 0 1 1.457-.572 6.269 6.269 0 0 1 1.72-.225 4.753 4.753 0 0 1 3.218 1.082 6.346 6.346 0 0 1 1.9 2.838 6.243 6.243 0 0 1 1.219-1.771 6.519 6.519 0 0 1 1.6-1.225 7.347 7.347 0 0 1 1.842-.694 8.957 8.957 0 0 1 1.984-.225 8.228 8.228 0 0 1 3.056.531 5.861 5.861 0 0 1 2.247 1.552 6.74 6.74 0 0 1 1.376 2.491 10.725 10.725 0 0 1 .486 3.369v13.331h-5V16.945a4.465 4.465 0 0 0-.87-3 3.166 3.166 0 0 0-2.55-1.021 3.856 3.856 0 0 0-1.437.265 3.379 3.379 0 0 0-1.923 2.021 4.922 4.922 0 0 0-.283 1.735v13.331h-5.02V16.945a4.551 4.551 0 0 0-.85-3.062 3.062 3.062 0 0 0-2.449-.96 4.009 4.009 0 0 0-2.044.551 6.687 6.687 0 0 0-1.741 1.47v15.332zM181.398 9.003a11.158 11.158 0 0 1 4.19.755 9.074 9.074 0 0 1 3.238 2.144 9.357 9.357 0 0 1 2.085 3.389 14.145 14.145 0 0 1 0 8.962 9.561 9.561 0 0 1-2.085 3.409 8.945 8.945 0 0 1-3.238 2.164 11.157 11.157 0 0 1-4.19.755 11.372 11.372 0 0 1-4.23-.755 9.143 9.143 0 0 1-3.259-2.164 9.958 9.958 0 0 1-2.082-3.41 14.143 14.143 0 0 1 0-8.962 9.739 9.739 0 0 1 2.085-3.389 9.278 9.278 0 0 1 3.259-2.144 11.373 11.373 0 0 1 4.227-.754zm0 17.7a4.356 4.356 0 0 0 3.829-1.751 8.807 8.807 0 0 0 1.255-5.145 8.908 8.908 0 0 0-1.255-5.165 4.337 4.337 0 0 0-3.825-1.776 4.467 4.467 0 0 0-3.906 1.8 11.173 11.173 0 0 0 0 10.289 4.507 4.507 0 0 0 3.906 1.756zM200.171 12.962a8.9 8.9 0 0 1 2.307-2.94 4.863 4.863 0 0 1 3.157-1.082 3.838 3.838 0 0 1 2.307.633l-.324 3.777a1 1 0 0 1-.3.531.8.8 0 0 1-.506.143 6.029 6.029 0 0 1-.911-.1 6.732 6.732 0 0 0-1.154-.1 4.156 4.156 0 0 0-1.478.245 3.735 3.735 0 0 0-1.174.715 4.932 4.932 0 0 0-.911 1.1 11.737 11.737 0 0 0-.729 1.49v12.9h-5V9.33h2.935a1.224 1.224 0 0 1 1.477 1.266zM215.737 9.33v20.946h-5.02V9.33zm.688-6.1a2.894 2.894 0 0 1-.263 1.225 3.277 3.277 0 0 1-.708 1 3.356 3.356 0 0 1-1.012.694 3.225 3.225 0 0 1-1.255.245 3.173 3.173 0 0 1-1.235-.245 3.409 3.409 0 0 1-1.68-1.695 3.1 3.1 0 0 1-.243-1.225 3.3 3.3 0 0 1 .243-1.266 3.387 3.387 0 0 1 .688-1.021 3.131 3.131 0 0 1 .992-.674 2.962 2.962 0 0 1 1.235-.265 3.01 3.01 0 0 1 1.255.265 3.075 3.075 0 0 1 1.012.674 3.209 3.209 0 0 1 .708 1.021 3.081 3.081 0 0 1 .263 1.263zM220.834 30.277V9.33h3.056a1.229 1.229 0 0 1 1.275.919l.324 1.552a12.621 12.621 0 0 1 1.133-1.123 7.9 7.9 0 0 1 1.275-.878 6.771 6.771 0 0 1 1.457-.572 6.269 6.269 0 0 1 1.72-.225 4.753 4.753 0 0 1 3.218 1.082 6.346 6.346 0 0 1 1.9 2.838 6.24 6.24 0 0 1 1.215-1.776 6.517 6.517 0 0 1 1.6-1.225 7.348 7.348 0 0 1 1.842-.694 8.955 8.955 0 0 1 1.984-.225 8.228 8.228 0 0 1 3.056.531 5.862 5.862 0 0 1 2.247 1.552 6.739 6.739 0 0 1 1.376 2.491 10.724 10.724 0 0 1 .486 3.369v13.331h-5V16.945a4.465 4.465 0 0 0-.87-3 3.166 3.166 0 0 0-2.55-1.021 3.857 3.857 0 0 0-1.437.265 3.379 3.379 0 0 0-1.923 2.021 4.924 4.924 0 0 0-.283 1.735v13.331h-5.02V16.945a4.55 4.55 0 0 0-.85-3.062 3.062 3.062 0 0 0-2.449-.96 4.009 4.009 0 0 0-2.044.551 6.687 6.687 0 0 0-1.741 1.47v15.332z"></path></g><g transform="translate(2.408 168.013)" fill="#acacac"><path d="M4.232 1.142h-.058a4.825 4.825 0 0 0-.478-.112 2.661 2.661 0 0 0-.519-.059 1.43 1.43 0 0 0-1.037.321 1.6 1.6 0 0 0-.318 1.148v.226h2v.939H1.857v5.7H.749v-5.7H0v-.939h.749v-.22A2.574 2.574 0 0 1 1.333.633a2.173 2.173 0 0 1 1.686-.636 5.591 5.591 0 0 1 .666.036q.3.036.548.083zM13.245 3.889h-.059a3.632 3.632 0 0 0-.483-.083 4.351 4.351 0 0 0-.548-.03 2.241 2.241 0 0 0-.99.232 4.453 4.453 0 0 0-.92.589v4.715H9.133V2.671h1.112v.981a5.364 5.364 0 0 1 1.161-.755 2.511 2.511 0 0 1 1.032-.226 3.434 3.434 0 0 1 .419.018q.13.012.389.053zM24.107 5.994a3.747 3.747 0 0 1-.825 2.563 3.084 3.084 0 0 1-4.433 0 4.417 4.417 0 0 1 0-5.125 3.071 3.071 0 0 1 4.433 0 3.748 3.748 0 0 1 .825 2.562zm-1.144 0a3.031 3.031 0 0 0-.5-1.915 1.864 1.864 0 0 0-2.794 0 3.894 3.894 0 0 0 .006 3.811 1.834 1.834 0 0 0 2.782.006 3.028 3.028 0 0 0 .507-1.9zM35.533 9.312h-1.108V5.535a6.5 6.5 0 0 0-.053-.856 1.585 1.585 0 0 0-.195-.63.882.882 0 0 0-.424-.369 1.764 1.764 0 0 0-.719-.125 2.285 2.285 0 0 0-.949.226 4.823 4.823 0 0 0-.949.577v4.959h-1.109V2.676h1.109v.737a4.5 4.5 0 0 1 1.073-.678 2.8 2.8 0 0 1 1.138-.244 2.033 2.033 0 0 1 1.627.648 2.775 2.775 0 0 1 .56 1.867zM45.285 9.252a5.955 5.955 0 0 1-.684.137 4.563 4.563 0 0 1-.654.054 2.026 2.026 0 0 1-1.533-.547 2.47 2.47 0 0 1-.525-1.754V3.609h-.75V2.67h.749V.761h1.108V2.67h2.287v.939h-2.285v3.026q0 .523.024.821a1.34 1.34 0 0 0 .165.547.819.819 0 0 0 .354.351 1.725 1.725 0 0 0 .7.107 2.228 2.228 0 0 0 .566-.077 4.316 4.316 0 0 0 .424-.137h.059zM54.806.059L50.58 11.12h-1.02L53.769.061zM66.315 5.94a4.469 4.469 0 0 1-.236 1.5 3.324 3.324 0 0 1-.625 1.118 2.9 2.9 0 0 1-.92.708 2.592 2.592 0 0 1-1.1.232 3.157 3.157 0 0 1-.979-.137 4.4 4.4 0 0 1-.825-.357l-.071.309H60.52V.06h1.108v3.306a4.549 4.549 0 0 1 .99-.63 2.709 2.709 0 0 1 1.179-.25 2.168 2.168 0 0 1 1.839.9 4.181 4.181 0 0 1 .678 2.551zm-1.144.03a3.391 3.391 0 0 0-.389-1.8 1.371 1.371 0 0 0-1.256-.618 2.453 2.453 0 0 0-.979.214 3.985 3.985 0 0 0-.92.541v3.805a4.841 4.841 0 0 0 .808.3 3.27 3.27 0 0 0 .772.083 1.791 1.791 0 0 0 1.438-.606 2.9 2.9 0 0 0 .525-1.915zM77.357 9.311h-1.1v-.708q-.147.1-.4.285a2.85 2.85 0 0 1-.483.285 3.158 3.158 0 0 1-.637.226 3.319 3.319 0 0 1-.843.1 2.1 2.1 0 0 1-1.509-.595 2.011 2.011 0 0 1-.619-1.516 2.115 2.115 0 0 1 .318-1.219 2.16 2.16 0 0 1 .92-.737 4.91 4.91 0 0 1 1.444-.363q.843-.1 1.81-.143v-.172a1.31 1.31 0 0 0-.136-.63.951.951 0 0 0-.377-.392 1.564 1.564 0 0 0-.566-.184 4.843 4.843 0 0 0-.69-.048 4.532 4.532 0 0 0-.973.119 7.263 7.263 0 0 0-1.108.333h-.059V2.816q.324-.089.937-.2a7.014 7.014 0 0 1 1.208-.107 5.4 5.4 0 0 1 1.208.119 2.31 2.31 0 0 1 .9.392 1.752 1.752 0 0 1 .566.708 2.631 2.631 0 0 1 .195 1.076zm-1.1-1.635V5.831q-.507.03-1.2.089a6.114 6.114 0 0 0-1.085.172 1.765 1.765 0 0 0-.772.428 1.049 1.049 0 0 0-.295.791 1.07 1.07 0 0 0 .342.862 1.6 1.6 0 0 0 1.043.285 2.488 2.488 0 0 0 1.067-.226 4.916 4.916 0 0 0 .898-.556zM88.571 8.895a7.062 7.062 0 0 1-1.055.416 3.651 3.651 0 0 1-1.055.149 3.943 3.943 0 0 1-1.309-.208 2.7 2.7 0 0 1-1.02-.642 2.873 2.873 0 0 1-.666-1.082A4.5 4.5 0 0 1 83.23 6a3.554 3.554 0 0 1 .884-2.557 3.1 3.1 0 0 1 2.346-.928 3.885 3.885 0 0 1 1.108.161 5.755 5.755 0 0 1 1 .392v1.243h-.059a4.191 4.191 0 0 0-1.049-.612 2.82 2.82 0 0 0-1.049-.214 1.858 1.858 0 0 0-1.491.642A2.818 2.818 0 0 0 84.378 6a2.85 2.85 0 0 0 .531 1.849 1.851 1.851 0 0 0 1.5.642 2.745 2.745 0 0 0 .684-.089 2.977 2.977 0 0 0 .625-.232q.242-.125.454-.262t.336-.244h.059zM100.171 9.311h-1.462l-2.641-2.907-.719.69v2.218h-1.108V.06h1.108v5.934l3.2-3.324h1.4L96.89 5.738zM119.495 6.107h-4.851a2.875 2.875 0 0 0 .183 1.07 1.972 1.972 0 0 0 1.226 1.171 2.906 2.906 0 0 0 .931.143 3.654 3.654 0 0 0 1.35-.268 3.362 3.362 0 0 0 .973-.535h.059v1.219a9.09 9.09 0 0 1-1.144.4 4.6 4.6 0 0 1-1.226.161 3.521 3.521 0 0 1-2.558-.892 3.394 3.394 0 0 1-.92-2.545 3.678 3.678 0 0 1 .878-2.586 3.013 3.013 0 0 1 2.323-.957 2.642 2.642 0 0 1 2.051.785 3.166 3.166 0 0 1 .725 2.23zm-1.079-.856a1.979 1.979 0 0 0-.442-1.362 1.674 1.674 0 0 0-1.315-.482 1.923 1.923 0 0 0-1.421.529 2.07 2.07 0 0 0-.6 1.314zM130.879 9.312h-1.108V5.535a6.5 6.5 0 0 0-.053-.856 1.584 1.584 0 0 0-.195-.63.882.882 0 0 0-.424-.369 1.764 1.764 0 0 0-.719-.125 2.285 2.285 0 0 0-.949.226 4.824 4.824 0 0 0-.949.577v4.959h-1.108V2.676h1.108v.737a4.5 4.5 0 0 1 1.073-.678 2.8 2.8 0 0 1 1.138-.244 2.033 2.033 0 0 1 1.627.648 2.775 2.775 0 0 1 .56 1.867zM142.552 9.311h-1.108v-.7a4.009 4.009 0 0 1-1 .648 2.727 2.727 0 0 1-1.126.232 2.232 2.232 0 0 1-1.875-.916 4.138 4.138 0 0 1-.69-2.539 4.457 4.457 0 0 1 .236-1.5 3.519 3.519 0 0 1 .648-1.124 2.711 2.711 0 0 1 2.04-.927 3.4 3.4 0 0 1 .92.113 4.111 4.111 0 0 1 .843.339V.06h1.108zm-1.108-1.635V3.865a4.136 4.136 0 0 0-.8-.279 3.619 3.619 0 0 0-.772-.077 1.746 1.746 0 0 0-1.45.654 2.921 2.921 0 0 0-.521 1.857 3.327 3.327 0 0 0 .4 1.8 1.423 1.423 0 0 0 1.285.612 2.4 2.4 0 0 0 .955-.208 4.13 4.13 0 0 0 .9-.547zM162.716 9.311h-1.108v-.7a4.01 4.01 0 0 1-1 .648 2.727 2.727 0 0 1-1.126.232 2.232 2.232 0 0 1-1.875-.916 4.138 4.138 0 0 1-.69-2.539 4.457 4.457 0 0 1 .236-1.5 3.52 3.52 0 0 1 .648-1.124 2.711 2.711 0 0 1 2.04-.927 3.4 3.4 0 0 1 .92.113 4.112 4.112 0 0 1 .843.339V.06h1.108zm-1.108-1.635V3.865a4.137 4.137 0 0 0-.8-.279 3.619 3.619 0 0 0-.772-.077 1.746 1.746 0 0 0-1.45.654 2.921 2.921 0 0 0-.52 1.857 3.327 3.327 0 0 0 .4 1.8 1.423 1.423 0 0 0 1.285.612 2.4 2.4 0 0 0 .955-.208 4.131 4.131 0 0 0 .9-.547zM174.608 6.107h-4.851a2.875 2.875 0 0 0 .183 1.07 1.972 1.972 0 0 0 1.226 1.171 2.906 2.906 0 0 0 .931.143 3.654 3.654 0 0 0 1.35-.268 3.363 3.363 0 0 0 .973-.535h.059v1.219a9.093 9.093 0 0 1-1.144.4 4.6 4.6 0 0 1-1.226.161 3.521 3.521 0 0 1-2.558-.892 3.394 3.394 0 0 1-.92-2.545 3.678 3.678 0 0 1 .878-2.586 3.013 3.013 0 0 1 2.323-.957 2.642 2.642 0 0 1 2.051.785 3.166 3.166 0 0 1 .725 2.23zm-1.079-.856a1.979 1.979 0 0 0-.442-1.362 1.674 1.674 0 0 0-1.315-.482 1.923 1.923 0 0 0-1.421.529 2.069 2.069 0 0 0-.6 1.314zM186.181 2.67l-2.664 6.641h-1.114l-2.647-6.641h1.2l2.039 5.286 2.022-5.286zM197.247 6.107h-4.852a2.875 2.875 0 0 0 .183 1.07 1.972 1.972 0 0 0 1.226 1.171 2.907 2.907 0 0 0 .931.143 3.654 3.654 0 0 0 1.35-.268 3.364 3.364 0 0 0 .973-.535h.059v1.219a9.093 9.093 0 0 1-1.144.4 4.6 4.6 0 0 1-1.226.161 3.521 3.521 0 0 1-2.558-.892 3.394 3.394 0 0 1-.92-2.545 3.677 3.677 0 0 1 .878-2.586 3.013 3.013 0 0 1 2.322-.957 2.642 2.642 0 0 1 2.051.785 3.166 3.166 0 0 1 .725 2.23zm-1.079-.856a1.979 1.979 0 0 0-.442-1.362 1.674 1.674 0 0 0-1.314-.482 1.923 1.923 0 0 0-1.421.529 2.07 2.07 0 0 0-.6 1.314zM204.246 9.311h-1.108V.06h1.108zM216.214 5.994a3.747 3.747 0 0 1-.825 2.563 3.084 3.084 0 0 1-4.433 0 4.417 4.417 0 0 1 0-5.125 3.071 3.071 0 0 1 4.433 0 3.748 3.748 0 0 1 .825 2.562zm-1.144 0a3.031 3.031 0 0 0-.5-1.915 1.864 1.864 0 0 0-2.794 0 3.894 3.894 0 0 0 .006 3.811 1.834 1.834 0 0 0 2.782.006 3.028 3.028 0 0 0 .506-1.902zM227.928 5.91a4.547 4.547 0 0 1-.23 1.48 3.24 3.24 0 0 1-.648 1.13 2.746 2.746 0 0 1-.92.684 2.668 2.668 0 0 1-1.114.238 3.575 3.575 0 0 1-.931-.113 3.848 3.848 0 0 1-.843-.351v2.783h-1.108V2.67h1.108v.7a4.244 4.244 0 0 1 .99-.624 2.781 2.781 0 0 1 1.179-.256 2.155 2.155 0 0 1 1.851.91 4.167 4.167 0 0 1 .666 2.515zm-1.143.03a3.2 3.2 0 0 0-.407-1.8 1.41 1.41 0 0 0-1.25-.595 2.414 2.414 0 0 0-.961.208 4.332 4.332 0 0 0-.925.547v3.764a4.425 4.425 0 0 0 .807.291 3.514 3.514 0 0 0 .772.077 1.767 1.767 0 0 0 1.444-.63 2.882 2.882 0 0 0 .519-1.867zM239.366 6.107h-4.851a2.877 2.877 0 0 0 .183 1.07 1.972 1.972 0 0 0 1.226 1.171 2.906 2.906 0 0 0 .931.143 3.654 3.654 0 0 0 1.35-.268 3.364 3.364 0 0 0 .973-.535h.059v1.219a9.1 9.1 0 0 1-1.144.4 4.6 4.6 0 0 1-1.226.161 3.521 3.521 0 0 1-2.558-.892 3.394 3.394 0 0 1-.92-2.545 3.678 3.678 0 0 1 .878-2.586 3.013 3.013 0 0 1 2.322-.957 2.643 2.643 0 0 1 2.051.785 3.167 3.167 0 0 1 .725 2.23zm-1.079-.856a1.979 1.979 0 0 0-.442-1.362 1.674 1.674 0 0 0-1.315-.482 1.923 1.923 0 0 0-1.421.529 2.07 2.07 0 0 0-.6 1.314zM249.354 3.889h-.059a3.632 3.632 0 0 0-.483-.083 4.353 4.353 0 0 0-.548-.03 2.24 2.24 0 0 0-.99.232 4.453 4.453 0 0 0-.92.589v4.715h-1.108V2.671h1.108v.981a5.362 5.362 0 0 1 1.161-.755 2.511 2.511 0 0 1 1.032-.226 3.435 3.435 0 0 1 .419.018q.13.012.389.053z"></path></g></g></svg><svg viewBox="899 1152 204.939 48" width="204.939" height="48" id="svg-logo-short" y="679"><g transform="translate(909 1162)"><path fill="#cecdcd" d="M11.035 10.602a5.1 5.1 0 0 0-1.9-1.827 5.122 5.122 0 0 0-2.366-.529 5.191 5.191 0 0 0-2.306.483 4.584 4.584 0 0 0-1.662 1.374 6.276 6.276 0 0 0-1 2.114 10.386 10.386 0 0 0-.329 2.7 8.134 8.134 0 0 0 1.213 4.939 4.218 4.218 0 0 0 3.534 1.571 4.9 4.9 0 0 0 2.68-.77 7.317 7.317 0 0 0 2.141-2.16zM12.457.423v21.974h-.779a.411.411 0 0 1-.449-.393l-.15-2.371a7.959 7.959 0 0 1-2.306 2.16 5.6 5.6 0 0 1-2.965.8 5.163 5.163 0 0 1-4.282-1.918q-1.527-1.918-1.527-5.754a10.78 10.78 0 0 1 .419-3.066 7.409 7.409 0 0 1 1.258-2.477 5.9 5.9 0 0 1 2.021-1.661 6.166 6.166 0 0 1 2.785-.6 5.753 5.753 0 0 1 2.62.559 5.5 5.5 0 0 1 1.932 1.661V.427zM27.813 13.365a6.32 6.32 0 0 0-.344-2.16 4.511 4.511 0 0 0-.943-1.631 4.05 4.05 0 0 0-1.467-1.012 4.631 4.631 0 0 0-1.857-.362 5.564 5.564 0 0 0-2.066.362 4.594 4.594 0 0 0-1.587 1.042 5.283 5.283 0 0 0-1.063 1.631 7.644 7.644 0 0 0-.539 2.129zm-9.942.921v.287a10.276 10.276 0 0 0 .389 2.975 6.2 6.2 0 0 0 1.108 2.16 4.6 4.6 0 0 0 1.737 1.3 5.7 5.7 0 0 0 2.276.438 6.955 6.955 0 0 0 1.946-.242 7.681 7.681 0 0 0 1.378-.559 8.856 8.856 0 0 0 .9-.559 1 1 0 0 1 .479-.257.343.343 0 0 1 .3.151l.389.483a4.02 4.02 0 0 1-.958.846 6.771 6.771 0 0 1-1.318.68 9.757 9.757 0 0 1-1.557.438 8.383 8.383 0 0 1-1.662.166 7.12 7.12 0 0 1-2.785-.529 5.983 5.983 0 0 1-2.156-1.571 7.234 7.234 0 0 1-1.392-2.507 11.176 11.176 0 0 1-.479-3.413 9.434 9.434 0 0 1 .449-2.975 6.917 6.917 0 0 1 1.318-2.356 6.055 6.055 0 0 1 2.111-1.556 6.936 6.936 0 0 1 2.845-.559 6.147 6.147 0 0 1 2.336.438 5.242 5.242 0 0 1 1.872 1.284 5.844 5.844 0 0 1 1.243 2.054 7.885 7.885 0 0 1 .464 2.809.808.808 0 0 1-.09.453.349.349 0 0 1-.3.121zM37.847 15.752a4.983 4.983 0 0 0 1.707-.272 3.624 3.624 0 0 0 1.258-.785 3.334 3.334 0 0 0 .779-1.193 4.227 4.227 0 0 0 .27-1.54 4.029 4.029 0 0 0-.284-1.54 3.218 3.218 0 0 0-.794-1.208 3.454 3.454 0 0 0-1.258-.77 4.807 4.807 0 0 0-1.677-.272 4.934 4.934 0 0 0-1.692.272 3.63 3.63 0 0 0-1.258.77 3.309 3.309 0 0 0-.779 1.208 4.537 4.537 0 0 0 0 3.081 3.334 3.334 0 0 0 .779 1.193 3.82 3.82 0 0 0 1.258.785 4.935 4.935 0 0 0 1.691.271zm5.57 7.657a1.647 1.647 0 0 0-.374-1.133 2.332 2.332 0 0 0-.973-.68 5.582 5.582 0 0 0-1.422-.332q-.794-.106-1.677-.151l-1.752-.091a13.787 13.787 0 0 1-1.662-.181 6.4 6.4 0 0 0-1.048.529 3.626 3.626 0 0 0-.824.665 3.039 3.039 0 0 0-.539.816 2.422 2.422 0 0 0-.195.967 2.365 2.365 0 0 0 .329 1.223 2.988 2.988 0 0 0 .988.982 5.46 5.46 0 0 0 1.6.665 8.788 8.788 0 0 0 2.171.242 8.259 8.259 0 0 0 2.111-.257 5.759 5.759 0 0 0 1.707-.725 3.573 3.573 0 0 0 1.138-1.118 2.566 2.566 0 0 0 .419-1.421zm1.557-15.374v.5q0 .332-.419.408l-2.276.166a4.418 4.418 0 0 1 .644 1.284 5.082 5.082 0 0 1 .225 1.54 4.89 4.89 0 0 1-.389 1.978 4.266 4.266 0 0 1-1.078 1.51 4.908 4.908 0 0 1-1.677.967 6.377 6.377 0 0 1-2.156.347 6.569 6.569 0 0 1-2.321-.393 3.278 3.278 0 0 0-1 .861 1.615 1.615 0 0 0-.359.967 1.185 1.185 0 0 0 .449 1 3.134 3.134 0 0 0 1.2.513 11.36 11.36 0 0 0 1.692.2q.958.045 1.946.106.988.045 1.932.181a5.864 5.864 0 0 1 1.692.483 2.9 2.9 0 0 1 1.2.951 2.585 2.585 0 0 1 .464 1.616 3.737 3.737 0 0 1-.464 1.8 4.714 4.714 0 0 1-1.348 1.525 6.826 6.826 0 0 1-2.111 1.057 8.9 8.9 0 0 1-2.785.408 10.234 10.234 0 0 1-2.755-.332 6.389 6.389 0 0 1-1.991-.876 3.781 3.781 0 0 1-1.2-1.269 3.115 3.115 0 0 1-.4-1.54 2.9 2.9 0 0 1 .779-2.039 5.139 5.139 0 0 1 2.126-1.344 2.992 2.992 0 0 1-1.213-.74 1.933 1.933 0 0 1-.449-1.344 2.037 2.037 0 0 1 .12-.665 2.628 2.628 0 0 1 .359-.68 3.538 3.538 0 0 1 .584-.649 4.478 4.478 0 0 1 .779-.544 4.516 4.516 0 0 1-1.662-1.646 4.775 4.775 0 0 1-.584-2.4 4.949 4.949 0 0 1 .374-1.963 4.4 4.4 0 0 1 1.093-1.525 4.965 4.965 0 0 1 1.677-.982 6.555 6.555 0 0 1 2.186-.347 6.416 6.416 0 0 1 1.812.242 5.37 5.37 0 0 1 1.5.68zM49.816.423v21.974h-1.438V.423zM56.44 7.37v15.027h-1.422V7.37zm.614-5.18a1.141 1.141 0 0 1-.12.513 1.426 1.426 0 0 1-.284.408 1.354 1.354 0 0 1-.419.287 1.278 1.278 0 0 1-1.018 0 1.354 1.354 0 0 1-.419-.287 1.427 1.427 0 0 1-.284-.408 1.31 1.31 0 0 1 0-1.027 1.325 1.325 0 0 1 .284-.438 1.355 1.355 0 0 1 .419-.287 1.279 1.279 0 0 1 1.018 0 1.354 1.354 0 0 1 .419.287 1.324 1.324 0 0 1 .284.438 1.141 1.141 0 0 1 .12.514zM71.972 13.365a6.32 6.32 0 0 0-.344-2.16 4.511 4.511 0 0 0-.943-1.631 4.05 4.05 0 0 0-1.467-1.012 4.631 4.631 0 0 0-1.857-.362 5.564 5.564 0 0 0-2.066.362 4.594 4.594 0 0 0-1.587 1.042 5.283 5.283 0 0 0-1.063 1.631 7.644 7.644 0 0 0-.539 2.129zm-9.942.921v.287a10.276 10.276 0 0 0 .389 2.975 6.2 6.2 0 0 0 1.108 2.16 4.6 4.6 0 0 0 1.737 1.3 5.7 5.7 0 0 0 2.276.438 6.955 6.955 0 0 0 1.946-.242 7.681 7.681 0 0 0 1.378-.559 8.859 8.859 0 0 0 .9-.559 1 1 0 0 1 .479-.257.343.343 0 0 1 .3.151l.389.483a4.021 4.021 0 0 1-.958.846 6.771 6.771 0 0 1-1.318.68 9.757 9.757 0 0 1-1.557.438 8.383 8.383 0 0 1-1.662.166 7.12 7.12 0 0 1-2.785-.529 5.984 5.984 0 0 1-2.156-1.571 7.234 7.234 0 0 1-1.392-2.507 11.176 11.176 0 0 1-.479-3.413 9.433 9.433 0 0 1 .449-2.975 6.917 6.917 0 0 1 1.318-2.356 6.055 6.055 0 0 1 2.111-1.556 6.936 6.936 0 0 1 2.845-.559 6.147 6.147 0 0 1 2.336.438 5.243 5.243 0 0 1 1.872 1.284 5.844 5.844 0 0 1 1.243 2.054 7.885 7.885 0 0 1 .464 2.809.808.808 0 0 1-.09.453.349.349 0 0 1-.3.121zM78.5 10.994a9.494 9.494 0 0 1 .779-1.631 5.37 5.37 0 0 1 1.018-1.223 4.175 4.175 0 0 1 1.288-.755 4.453 4.453 0 0 1 1.587-.272 4.609 4.609 0 0 1 .913.091 2.2 2.2 0 0 1 .794.287l-.12 1a.29.29 0 0 1-.284.242 2.288 2.288 0 0 1-.554-.106 3.505 3.505 0 0 0-.958-.106 4.1 4.1 0 0 0-1.542.272 3.536 3.536 0 0 0-1.2.785 5.282 5.282 0 0 0-.928 1.314 12.633 12.633 0 0 0-.719 1.782V22.4h-1.437V7.369h.764a.5.5 0 0 1 .359.106.611.611 0 0 1 .135.362z"></path><path fill="#c53e3e" d="M95.21 15.782a19.291 19.291 0 0 0-2.7.287 6.953 6.953 0 0 0-1.752.513 2.306 2.306 0 0 0-.943.74 1.617 1.617 0 0 0-.284.921 1.636 1.636 0 0 0 .569 1.4 2.517 2.517 0 0 0 1.512.423 4.377 4.377 0 0 0 1.962-.408 5.94 5.94 0 0 0 1.632-1.269zm-8.476-6.72a9.072 9.072 0 0 1 6.378-2.447 6.1 6.1 0 0 1 2.411.453 4.965 4.965 0 0 1 1.8 1.238 5.15 5.15 0 0 1 1.108 1.888 7.213 7.213 0 0 1 .389 2.416v9.786h-1.677a1.754 1.754 0 0 1-.809-.151 1.137 1.137 0 0 1-.449-.649l-.329-1.118a14.617 14.617 0 0 1-1.138.936 6.983 6.983 0 0 1-1.153.665 5.838 5.838 0 0 1-1.288.408 6.856 6.856 0 0 1-1.5.151 6.01 6.01 0 0 1-1.8-.257 4.029 4.029 0 0 1-1.422-.8 3.559 3.559 0 0 1-.928-1.314 4.7 4.7 0 0 1-.329-1.827 3.6 3.6 0 0 1 .195-1.163 3.475 3.475 0 0 1 .629-1.118 5.485 5.485 0 0 1 1.153-1 7.45 7.45 0 0 1 1.722-.816 14.58 14.58 0 0 1 2.4-.559 22.738 22.738 0 0 1 3.114-.272v-.906a3.381 3.381 0 0 0-.659-2.3 2.388 2.388 0 0 0-1.9-.755 4.547 4.547 0 0 0-1.5.211 5.82 5.82 0 0 0-1.033.483l-.824.468a1.564 1.564 0 0 1-.809.211 1.088 1.088 0 0 1-.659-.2 1.8 1.8 0 0 1-.434-.483zM102.301 22.397v-15.5h2.261a.909.909 0 0 1 .943.68l.24 1.148a9.332 9.332 0 0 1 .838-.831 5.845 5.845 0 0 1 .943-.649 5.009 5.009 0 0 1 1.078-.423 4.638 4.638 0 0 1 1.273-.166 3.516 3.516 0 0 1 2.381.8 4.694 4.694 0 0 1 1.407 2.1 4.618 4.618 0 0 1 .9-1.314 4.823 4.823 0 0 1 1.183-.906 5.435 5.435 0 0 1 1.362-.513 6.626 6.626 0 0 1 1.467-.166 6.087 6.087 0 0 1 2.261.393 4.336 4.336 0 0 1 1.662 1.148 4.986 4.986 0 0 1 1.018 1.843 7.934 7.934 0 0 1 .359 2.492v9.862h-3.7v-9.862a3.3 3.3 0 0 0-.644-2.22 2.342 2.342 0 0 0-1.887-.755 2.853 2.853 0 0 0-1.063.2 2.5 2.5 0 0 0-1.422 1.5 3.641 3.641 0 0 0-.21 1.284v9.862h-3.713v-9.862a3.366 3.366 0 0 0-.629-2.265 2.265 2.265 0 0 0-1.812-.71 2.966 2.966 0 0 0-1.512.408 4.947 4.947 0 0 0-1.288 1.087v11.342zM134.191 6.66a8.254 8.254 0 0 1 3.1.559 6.713 6.713 0 0 1 2.4 1.586 6.921 6.921 0 0 1 1.542 2.507 10.464 10.464 0 0 1 0 6.63 7.073 7.073 0 0 1-1.542 2.522 6.617 6.617 0 0 1-2.4 1.6 8.254 8.254 0 0 1-3.1.559 8.413 8.413 0 0 1-3.129-.559 6.764 6.764 0 0 1-2.411-1.6 7.366 7.366 0 0 1-1.542-2.522 10.463 10.463 0 0 1 0-6.63 7.2 7.2 0 0 1 1.542-2.507 6.863 6.863 0 0 1 2.411-1.586 8.413 8.413 0 0 1 3.129-.559zm0 13.094a3.222 3.222 0 0 0 2.83-1.3 6.515 6.515 0 0 0 .928-3.806 6.59 6.59 0 0 0-.928-3.821 3.208 3.208 0 0 0-2.83-1.314 3.3 3.3 0 0 0-2.89 1.329 8.265 8.265 0 0 0 0 7.612 3.334 3.334 0 0 0 2.89 1.3zM148.077 9.589a6.586 6.586 0 0 1 1.707-2.175 3.6 3.6 0 0 1 2.336-.8 2.839 2.839 0 0 1 1.707.468l-.24 2.794a.741.741 0 0 1-.225.393.593.593 0 0 1-.374.106 4.46 4.46 0 0 1-.674-.076 4.98 4.98 0 0 0-.854-.075 3.075 3.075 0 0 0-1.093.181 2.763 2.763 0 0 0-.868.529 3.649 3.649 0 0 0-.674.816 8.683 8.683 0 0 0-.539 1.1v9.545h-3.7v-15.5h2.171a.905.905 0 0 1 1.093.936zM159.593 6.902v15.5h-3.713v-15.5zm.509-4.516a2.141 2.141 0 0 1-.195.906 2.424 2.424 0 0 1-.524.74 2.483 2.483 0 0 1-.749.513 2.385 2.385 0 0 1-.928.181 2.347 2.347 0 0 1-.913-.181 2.522 2.522 0 0 1-1.243-1.254 2.293 2.293 0 0 1-.18-.906 2.443 2.443 0 0 1 .18-.936 2.506 2.506 0 0 1 .509-.755 2.317 2.317 0 0 1 .734-.5 2.192 2.192 0 0 1 .913-.2 2.227 2.227 0 0 1 .928.2 2.275 2.275 0 0 1 .749.5 2.374 2.374 0 0 1 .524.755 2.279 2.279 0 0 1 .195.933zM163.363 22.397v-15.5h2.261a.909.909 0 0 1 .943.68l.24 1.148a9.338 9.338 0 0 1 .838-.831 5.844 5.844 0 0 1 .943-.649 5.009 5.009 0 0 1 1.078-.423 4.638 4.638 0 0 1 1.273-.166 3.516 3.516 0 0 1 2.381.8 4.694 4.694 0 0 1 1.407 2.1 4.617 4.617 0 0 1 .9-1.314 4.822 4.822 0 0 1 1.183-.906 5.436 5.436 0 0 1 1.363-.513 6.625 6.625 0 0 1 1.467-.166 6.087 6.087 0 0 1 2.261.393 4.336 4.336 0 0 1 1.662 1.148 4.985 4.985 0 0 1 1.018 1.843 7.933 7.933 0 0 1 .359 2.492v9.862h-3.7v-9.862a3.3 3.3 0 0 0-.644-2.22 2.342 2.342 0 0 0-1.887-.755 2.853 2.853 0 0 0-1.063.2 2.5 2.5 0 0 0-1.422 1.5 3.642 3.642 0 0 0-.21 1.284v9.862h-3.713v-9.862a3.366 3.366 0 0 0-.629-2.265 2.265 2.265 0 0 0-1.812-.71 2.966 2.966 0 0 0-1.512.408 4.948 4.948 0 0 0-1.288 1.087v11.342z"></path></g></svg><svg viewBox="1613.4 1157 41.6 38" width="41.6" height="38" id="svg-menu" y="727"><g transform="translate(1623.4 1167)" fill="#acacac"><path d="M21.6.9a.85.85 0 0 0-.9-.9H.9a.85.85 0 0 0-.9.9v1.8a.85.85 0 0 0 .9.9h19.8a.85.85 0 0 0 .9-.9zM21.6 8.1a.85.85 0 0 0-.9-.9H.9a.85.85 0 0 0-.9.9v1.8a.85.85 0 0 0 .9.9h19.8a.85.85 0 0 0 .9-.9zM21.6 15.3a.85.85 0 0 0-.9-.9H.9a.85.85 0 0 0-.9.9v1.8a.85.85 0 0 0 .9.9h19.8a.85.85 0 0 0 .9-.9z"></path></g></svg><svg viewBox="1806 370 42.563 38" width="42.563" height="38" id="svg-tags-dark" y="765"><g transform="translate(1816 380)" fill="#acacac"><path d="M18 10.646a1.522 1.522 0 0 0-.44-1.081L9.065 1.081A3.678 3.678 0 0 0 7.853.315 3.67 3.67 0 0 0 6.463 0H1.521A1.462 1.462 0 0 0 .452.451 1.461 1.461 0 0 0 0 1.521v4.943a3.668 3.668 0 0 0 .315 1.39 3.544 3.544 0 0 0 .766 1.2l8.5 8.507a1.455 1.455 0 0 0 1.069.44 1.522 1.522 0 0 0 1.081-.44l5.834-5.846A1.456 1.456 0 0 0 18 10.646zM4.877 4.881a1.466 1.466 0 0 1-1.075.446 1.521 1.521 0 0 1 0-3.042 1.521 1.521 0 0 1 1.075 2.6z"></path><path d="M22.122 9.564l-8.5-8.483A4.21 4.21 0 0 0 11.022 0H8.368a4.211 4.211 0 0 1 2.6 1.081l8.495 8.483a1.521 1.521 0 0 1 .44 1.081 1.455 1.455 0 0 1-.44 1.069l-5.584 5.584a3.39 3.39 0 0 0 .63.535 1.331 1.331 0 0 0 .7.166 1.52 1.52 0 0 0 1.081-.44l5.834-5.846a1.455 1.455 0 0 0 .44-1.069 1.522 1.522 0 0 0-.442-1.08z"></path></g></svg><svg viewBox="898 2138 41.309 37" width="41.309" height="37" id="svg-tags-light" y="803"><g transform="translate(908 2148)" fill="#fff"><path d="M17 10.054a1.437 1.437 0 0 0-.415-1.021L8.562 1.021A3.474 3.474 0 0 0 7.417.297a3.466 3.466 0 0 0-1.313-.3H1.436a1.381 1.381 0 0 0-1.01.426A1.38 1.38 0 0 0 0 1.436v4.668a3.464 3.464 0 0 0 .3 1.313 3.347 3.347 0 0 0 .724 1.133l8.02 8.031a1.375 1.375 0 0 0 1.01.415 1.437 1.437 0 0 0 1.021-.415l5.51-5.521A1.375 1.375 0 0 0 17 10.054zM4.606 4.606a1.384 1.384 0 0 1-1.016.421 1.437 1.437 0 0 1 0-2.873 1.436 1.436 0 0 1 1.016 2.452z"></path><path d="M20.894 9.033l-8.023-8.012A3.976 3.976 0 0 0 10.414 0h-2.51a3.977 3.977 0 0 1 2.457 1.021l8.023 8.012a1.437 1.437 0 0 1 .415 1.021 1.374 1.374 0 0 1-.415 1.01l-5.28 5.274a3.2 3.2 0 0 0 .595.5 1.257 1.257 0 0 0 .662.157 1.436 1.436 0 0 0 1.021-.415l5.51-5.521a1.374 1.374 0 0 0 .415-1.01 1.437 1.437 0 0 0-.413-1.016z"></path></g></svg><svg viewBox="1282 2861 68 68" width="68" height="68" id="svg-twitter" y="840"><g transform="translate(1292 2871)"><circle fill="#55acee" cx="24" cy="24" r="24"></circle><path fill="#fff" d="M38.701 17.248a11.446 11.446 0 0 1-3.3.9 5.752 5.752 0 0 0 2.523-3.173 11.484 11.484 0 0 1-3.643 1.392 5.741 5.741 0 0 0-9.776 5.233 16.285 16.285 0 0 1-11.825-5.995 5.743 5.743 0 0 0 1.775 7.659 5.7 5.7 0 0 1-2.6-.718v.073a5.74 5.74 0 0 0 4.6 5.625 5.759 5.759 0 0 1-2.59.1 5.743 5.743 0 0 0 5.371 3.986 11.581 11.581 0 0 1-8.5 2.374 16.227 16.227 0 0 0 8.8 2.578c10.552 0 16.322-8.741 16.322-16.323 0-.249-.006-.5-.017-.742a11.633 11.633 0 0 0 2.863-2.969z"></path></g></svg><svg viewBox="1204 2861 68 68" width="68" height="68" id="svg-whatsapp" y="908"><g transform="translate(1214 2871)"><path fill="#2cb742" d="M0 48l4.128-12.383a23.584 23.584 0 1 1 9.312 8.847z"></path><path fill="#fff" d="M39.462 31.436c-1.089-2.058-5.105-4.412-5.105-4.412-.909-.518-2.005-.576-2.523.348a20.8 20.8 0 0 1-1.637 1.79 3.051 3.051 0 0 1-4.338-.43l-3.295-3.295-3.295-3.295a3.051 3.051 0 0 1-.43-4.338 20.8 20.8 0 0 1 1.79-1.637c.924-.519.866-1.615.348-2.523 0 0-2.354-4.016-4.412-5.105a2.256 2.256 0 0 0-2.651.4l-1.455 1.455c-4.615 4.615-2.343 9.826 2.273 14.441l4.218 4.218 4.218 4.218c4.615 4.615 9.826 6.888 14.441 2.273l1.455-1.455a2.258 2.258 0 0 0 .398-2.653z"></path></g></svg></svg>