<svg xmlns="http://www.w3.org/2000/svg" viewBox="1816 2739 19.5 18"><g transform="translate(1816 2720.729)"><g transform="translate(0 18.271)"><path fill="#acacac" d="M35.523,146.177h-16.5a.76.76,0,0,0-.75.75v11.25a.761.761,0,0,0,.75.75h16.5a.76.76,0,0,0,.75-.75v-11.25a.76.76,0,0,0-.75-.75ZM29.3,149.7a.72.72,0,0,1-.527.223h-3a.75.75,0,0,1,0-1.5h3A.746.746,0,0,1,29.3,149.7Z" transform="translate(-17.523 -140.927)"/><path fill="#acacac" d="M19.277,18.494a.721.721,0,0,0-.527-.223H.75a.721.721,0,0,0-.527.223A.721.721,0,0,0,0,19.021v3a.721.721,0,0,0,.223.527.721.721,0,0,0,.527.223h18a.76.76,0,0,0,.75-.75v-3A.721.721,0,0,0,19.277,18.494Z" transform="translate(0 -18.271)"/></g></g></svg>