<svg xmlns="http://www.w3.org/2000/svg" viewBox="1543 2148 16.623 17"><g transform="translate(1537.589 2148)"><g transform="translate(5.411)"><path fill="#ffffff" d="M119.153,258.627a.386.386,0,0,0-.386-.385h-1.347a.386.386,0,0,0-.386.385v1.346a.386.386,0,0,0,.386.386h1.347a.386.386,0,0,0,.386-.386v-1.346Z" transform="translate(-113.148 -249.249)"/><path fill="#ffffff" d="M215.788,258.627a.386.386,0,0,0-.385-.385h-1.347a.386.386,0,0,0-.386.385v1.346a.386.386,0,0,0,.386.386H215.4a.386.386,0,0,0,.385-.386Z" transform="translate(-206.417 -249.249)"/><path fill="#ffffff" d="M312.416,258.627a.386.386,0,0,0-.386-.385h-1.346a.386.386,0,0,0-.386.385v1.346a.386.386,0,0,0,.386.386h1.346a.386.386,0,0,0,.386-.386Z" transform="translate(-299.68 -249.249)"/><path fill="#ffffff" d="M119.153,355.261a.386.386,0,0,0-.386-.386h-1.347a.386.386,0,0,0-.386.386v1.346a.386.386,0,0,0,.386.386h1.347a.386.386,0,0,0,.386-.386v-1.346Z" transform="translate(-113.148 -342.516)"/><path fill="#ffffff" d="M215.788,355.261a.386.386,0,0,0-.385-.386h-1.347a.386.386,0,0,0-.386.386v1.346a.386.386,0,0,0,.386.386H215.4a.386.386,0,0,0,.385-.386Z" transform="translate(-206.417 -342.516)"/><path fill="#ffffff" d="M312.416,355.261a.385.385,0,0,0-.385-.386h-1.347a.386.386,0,0,0-.386.386v1.346a.386.386,0,0,0,.386.386h1.347a.386.386,0,0,0,.385-.386v-1.346Z" transform="translate(-299.68 -342.516)"/><path fill="#ffffff" d="M20.554,54.149v2.056a1.68,1.68,0,0,1-1.683,1.679H17.809a1.688,1.688,0,0,1-1.693-1.679V54.142H11.329v2.064a1.688,1.688,0,0,1-1.693,1.679H8.574a1.68,1.68,0,0,1-1.683-1.679V54.149a1.531,1.531,0,0,0-1.48,1.523V67.724a1.531,1.531,0,0,0,1.524,1.533H20.51a1.533,1.533,0,0,0,1.524-1.533V55.672A1.531,1.531,0,0,0,20.554,54.149Zm-.493,12.824a.659.659,0,0,1-.659.659H8.014a.659.659,0,0,1-.659-.659V60.748a.659.659,0,0,1,.659-.659H19.4a.659.659,0,0,1,.659.659v6.225Z" transform="translate(-5.411 -52.256)"/><path fill="#ffffff" d="M80.127,4.525h1.05a.577.577,0,0,0,.577-.577V.577A.577.577,0,0,0,81.178,0h-1.05a.577.577,0,0,0-.577.577V3.948A.577.577,0,0,0,80.127,4.525Z" transform="translate(-76.968)"/><path fill="#ffffff" d="M345.035,4.525h1.05a.577.577,0,0,0,.577-.577V.577A.577.577,0,0,0,346.086,0h-1.05a.577.577,0,0,0-.577.577V3.948A.577.577,0,0,0,345.035,4.525Z" transform="translate(-332.651)"/></g></g></svg>