<svg xmlns="http://www.w3.org/2000/svg" viewBox="1261 884 32 32"><g transform="translate(1096 385)"><circle fill="#acacac" cx="16" cy="16" r="16" transform="translate(165 499)"/><path fill="#535353" d="M10.3,8.256a.353.353,0,0,1,0-.511l5.479-5.479A.789.789,0,0,0,16,1.753a.789.789,0,0,0-.219-.511L14.758.219A.789.789,0,0,0,14.247,0a.663.663,0,0,0-.511.219L8.256,5.7a.353.353,0,0,1-.511,0L2.265.219A.789.789,0,0,0,1.753,0a.789.789,0,0,0-.511.219L.219,1.242A.789.789,0,0,0,0,1.753a.789.789,0,0,0,.219.511L5.7,7.744a.353.353,0,0,1,0,.511L.219,13.735a.706.706,0,0,0,0,1.023l1.023,1.023A.789.789,0,0,0,1.753,16a.789.789,0,0,0,.511-.219L7.744,10.3a.353.353,0,0,1,.511,0l5.479,5.479a.706.706,0,0,0,1.023,0l1.023-1.023a.706.706,0,0,0,0-1.023Z" transform="translate(173 507)"/></g></svg>