<svg xmlns="http://www.w3.org/2000/svg" viewBox="1292 946 48 48"><g transform="translate(1292 946)"><g transform="translate(12 15)"><g transform="translate(0 0)"><path fill="#acacac" d="M2.3,60.632q.455.321,2.745,1.909t3.509,2.444q.134.094.569.409t.723.509q.288.194.7.435a4.041,4.041,0,0,0,.77.361,2.122,2.122,0,0,0,.67.121h.027a2.124,2.124,0,0,0,.67-.121,4.045,4.045,0,0,0,.77-.361q.408-.241.7-.435t.723-.509q.435-.315.569-.409l6.268-4.353a6.362,6.362,0,0,0,1.634-1.647A3.537,3.537,0,0,0,24,56.963a2.161,2.161,0,0,0-2.143-2.143H2.143a1.913,1.913,0,0,0-1.587.7A2.7,2.7,0,0,0,0,57.257a3.128,3.128,0,0,0,.737,1.828A6.648,6.648,0,0,0,2.3,60.632Z" transform="translate(0 -54.82)"/><path fill="#acacac" d="M22.66,185.6q-4.392,2.973-6.669,4.621-.763.562-1.239.877a7.645,7.645,0,0,1-1.266.643,3.854,3.854,0,0,1-1.473.328h-.027a3.855,3.855,0,0,1-1.473-.328,7.649,7.649,0,0,1-1.266-.643q-.475-.315-1.239-.877Q6.2,188.9,1.353,185.6A7.094,7.094,0,0,1,0,184.437v10.634a2.063,2.063,0,0,0,.629,1.514,2.063,2.063,0,0,0,1.513.63H21.857A2.149,2.149,0,0,0,24,195.071V184.437A7.386,7.386,0,0,1,22.66,185.6Z" transform="translate(0 -178.357)"/></g></g><g fill="none" stroke="#acacac"><circle stroke="none" cx="24" cy="24" r="24"/><circle fill="none" cx="24" cy="24" r="23.5"/></g></g></svg>