<svg xmlns="http://www.w3.org/2000/svg" viewBox="1370 946 48 48"><g transform="translate(1370 946)"><g transform="translate(12 12)"><path fill="#acacac" d="M.182,0V4.6A19.411,19.411,0,0,1,19.559,24h4.614A24.026,24.026,0,0,0,.182,0Z" transform="translate(-0.173)"/><path fill="#acacac" d="M.061,165.221v4.6a11.142,11.142,0,0,1,7.932,3.294,11.175,11.175,0,0,1,3.288,7.953H15.9A15.863,15.863,0,0,0,.061,165.221Z" transform="translate(-0.058 -157.068)"/><path fill="#acacac" d="M3.2,356.647a3.186,3.186,0,1,0,3.2,3.188A3.2,3.2,0,0,0,3.2,356.647Z" transform="translate(0 -339.049)"/></g><g fill="none" stroke="#acacac"><circle stroke="none" cx="24" cy="24" r="24"/><circle class="d" cx="24" cy="24" r="23.5"/></g></g></svg>