<svg xmlns="http://www.w3.org/2000/svg" viewBox="2524 383 10 12"><g transform="translate(2487.454 383)"><g transform="translate(36.546)"><path fill="#acacac" d="M259.279,3.8l-2.438-2.438A1.9,1.9,0,0,0,255.81.854V4.831h3.977A1.9,1.9,0,0,0,259.279,3.8Z" transform="translate(-249.81 -0.831)"/><path fill="#acacac" d="M42.3,5a.747.747,0,0,1-.75-.75V0H37.3a.723.723,0,0,0-.531.219.723.723,0,0,0-.219.531v10.5a.747.747,0,0,0,.75.75h8.5a.747.747,0,0,0,.75-.75V5Z" transform="translate(-36.546)"/></g></g></svg>