<svg xmlns="http://www.w3.org/2000/svg" viewBox="1135 2871 48 48"><g transform="translate(1135 2871)"><g transform="translate(0 0)"><circle fill="#dc4e41" cx="24" cy="24" r="24" transform="translate(0)"/></g><g transform="translate(8.35 15.165)"><path fill="#dc4e41" d="M19.523,45.355a9.89,9.89,0,0,0,6.671,9.355c3.685,1.238,8.216.312,10.669-2.844a11.186,11.186,0,0,0,2-7.914c-3.156-.028-6.312-.019-9.463-.014-.005,1.124,0,2.244,0,3.369,1.89.052,3.78.028,5.67.066a5.467,5.467,0,0,1-3.213,3.746,6.25,6.25,0,1,1-4.21-11.76c2.027-.713,4.115.09,5.85,1.144.879-.822,1.7-1.7,2.509-2.589a9.948,9.948,0,0,0-16.49,7.441Z" transform="translate(-19.517 -35.445)"/><path fill="#dc4e41" d="M75.291,48.668c-.009.94-.019,1.885-.024,2.825-.945.009-1.885.014-2.825.019v2.816c.94,0,1.885.009,2.825.019.009.94.009,1.88.019,2.825.936,0,1.876,0,2.816,0,.005-.945.009-1.885.019-2.83l2.825-.014V51.513c-.94,0-1.885-.009-2.825-.019-.005-.94-.014-1.885-.019-2.825Z" transform="translate(-49.799 -43.011)"/><path fill="#fff" d="M19.523,45.355a9.948,9.948,0,0,1,16.49-7.442C35.2,38.8,34.382,39.68,33.5,40.5c-1.734-1.054-3.823-1.857-5.85-1.144a6.25,6.25,0,1,0,4.21,11.76,5.468,5.468,0,0,0,3.213-3.746c-1.89-.038-3.78-.014-5.67-.066,0-1.124-.009-2.244,0-3.369,3.151,0,6.307-.014,9.463.014a11.183,11.183,0,0,1-2,7.914c-2.452,3.156-6.983,4.082-10.669,2.844A9.89,9.89,0,0,1,19.523,45.355Z" transform="translate(-19.517 -35.445)"/><path fill="#fff" d="M75.291,48.668H78.1c.005.94.014,1.885.019,2.825.94.009,1.885.014,2.825.019v2.816l-2.825.014c-.009.945-.014,1.885-.019,2.83-.94,0-1.881,0-2.816,0-.009-.945-.009-1.885-.019-2.825-.94-.01-1.885-.014-2.825-.019V51.512q1.411-.007,2.825-.019C75.272,50.553,75.281,49.608,75.291,48.668Z" transform="translate(-49.799 -43.011)"/></g></g></svg>