<svg xmlns="http://www.w3.org/2000/svg" viewBox="2224 992 18.91 16"><g transform="translate(2224 960.408)"><g transform="translate(0 31.592)"><g transform="translate(0 0)"><path fill="#d43d21" d="M93.545,40.071c1.469-1.382,3.293-3.1,3.544-4.626a3.333,3.333,0,0,0-.511-2.646,3.291,3.291,0,0,0-2.419-1.191,2.968,2.968,0,0,0-.3-.016,3.52,3.52,0,0,0-2.182.785,3.517,3.517,0,0,0-2.18-.785,2.969,2.969,0,0,0-.3.016A3.29,3.29,0,0,0,86.778,32.8a3.333,3.333,0,0,0-.511,2.646c.251,1.528,2.075,3.244,3.544,4.626,0,0,.733.736.953.925a1.189,1.189,0,0,0,1.828,0C92.812,40.807,93.545,40.071,93.545,40.071Z" transform="translate(-82.23 -31.592)"/><path fill="#dec8ae" d="M6.854,139.02a4.559,4.559,0,0,0-2.473-.658.663.663,0,0,1-.28-.134l-.063-.042a1.19,1.19,0,0,1-.243-.206c-.134-.161-.286-.3-.414-.475a3.667,3.667,0,0,0-1.818-1.479c-.166-.08-.28-.1-.317-.217-.015-.053-.16-1.437-.186-1.67-.072-.668-.144-1.162-.526-1.3a.2.2,0,0,0-.241.054,2.621,2.621,0,0,0-.164.883s-.144,1.791-.127,2.412a10.424,10.424,0,0,0,1.667,3.681,27.888,27.888,0,0,0,3.24,2.093,1.505,1.505,0,0,1,.628,1.027v.606a.488.488,0,0,0,.538.561l2.073,0c.606,0,.488-.548.489-.74,0-.137,0-.245,0-.3,0-.021,0-.033,0-.033.007-.2.041-.395.064-.591a2.231,2.231,0,0,0-.018-.815A4.864,4.864,0,0,0,6.854,139.02Z" transform="translate(0 -128.163)"/><path fill="#dec8ae" d="M229.25,133.782a2.621,2.621,0,0,0-.164-.883.2.2,0,0,0-.241-.054c-.382.134-.454.629-.526,1.3-.026.232-.171,1.617-.186,1.67-.037.114-.151.137-.317.217A3.668,3.668,0,0,0,226,137.507c-.128.179-.28.314-.414.475a1.193,1.193,0,0,1-.243.206l-.063.042a.663.663,0,0,1-.28.134,4.559,4.559,0,0,0-2.473.658,4.863,4.863,0,0,0-1.83,2.666,2.231,2.231,0,0,0-.018.815c.024.2.057.393.064.591,0,0,0,.012,0,.033,0,.052,0,.161,0,.3,0,.192-.118.74.489.74l2.073,0a.488.488,0,0,0,.538-.561v-.606a1.505,1.505,0,0,1,.628-1.027,29.259,29.259,0,0,0,3.24-2.093,16.081,16.081,0,0,0,1.667-3.681A18.42,18.42,0,0,0,229.25,133.782Z" transform="translate(-210.482 -128.163)"/></g></g></g></svg>