<svg xmlns="http://www.w3.org/2000/svg" viewBox="1214 946 48 48"><g transform="translate(1214 946)"><g transform="translate(12 12)"><path fill="#acacac" d="M22.23,0H1.775A1.747,1.747,0,0,0,0,1.72V22.28A1.748,1.748,0,0,0,1.775,24H22.23A1.747,1.747,0,0,0,24,22.28V1.72A1.746,1.746,0,0,0,22.23,0ZM7.278,20.09H3.652V9.254H7.278ZM5.465,7.774H5.441A1.878,1.878,0,1,1,5.488,4.03a1.879,1.879,0,1,1-.023,3.744ZM20.35,20.09H16.725v-5.8c0-1.457-.525-2.451-1.836-2.451a1.981,1.981,0,0,0-1.86,1.318,2.422,2.422,0,0,0-.121.878v6.052H9.283s.047-9.819,0-10.836h3.625V10.79A3.6,3.6,0,0,1,16.175,9c2.386,0,4.175,1.548,4.175,4.878Zm-7.465-9.265c.006-.01.015-.022.023-.034v.034Z" transform="translate(-0.002 0)"/></g><g fill="none" stroke="#acacac"><circle fill="none" cx="24" cy="24" r="24"/><circle fill="none" cx="24" cy="24" r="23.5"/></g></g></svg>