<svg xmlns="http://www.w3.org/2000/svg" viewBox="1152 25 250 55.556"><g transform="translate(1149.622 -99.218)"><g transform="translate(2.378 124.218)"><path fill="#cecdcd" d="M17.295,138.64a6.891,6.891,0,0,0-2.571-2.47,6.923,6.923,0,0,0-3.2-.715,7.017,7.017,0,0,0-3.117.653,6.2,6.2,0,0,0-2.247,1.858,8.484,8.484,0,0,0-1.356,2.858,14.04,14.04,0,0,0-.445,3.654q0,4.532,1.639,6.676a5.7,5.7,0,0,0,4.777,2.123,6.621,6.621,0,0,0,3.623-1.041,9.891,9.891,0,0,0,2.894-2.919Zm1.923-13.76v29.7H18.165a.556.556,0,0,1-.607-.531l-.2-3.205a10.758,10.758,0,0,1-3.117,2.919,7.566,7.566,0,0,1-4.008,1.082,6.98,6.98,0,0,1-5.789-2.593q-2.065-2.593-2.065-7.778a14.573,14.573,0,0,1,.567-4.144,10.015,10.015,0,0,1,1.7-3.348,7.973,7.973,0,0,1,2.732-2.246,8.335,8.335,0,0,1,3.765-.817,7.777,7.777,0,0,1,3.542.755,7.435,7.435,0,0,1,2.611,2.246V124.88Z" transform="translate(-2.378 -124.309)"/><path fill="#cecdcd" d="M43.734,143.817a8.543,8.543,0,0,0-.466-2.919,6.1,6.1,0,0,0-1.275-2.2,5.475,5.475,0,0,0-1.984-1.368,6.261,6.261,0,0,0-2.51-.49,7.521,7.521,0,0,0-2.793.49,6.21,6.21,0,0,0-2.145,1.409,7.141,7.141,0,0,0-1.437,2.2,10.334,10.334,0,0,0-.729,2.879Zm-13.44,1.245v.388a13.891,13.891,0,0,0,.526,4.022,8.375,8.375,0,0,0,1.5,2.919,6.225,6.225,0,0,0,2.348,1.756,7.71,7.71,0,0,0,3.077.592,9.4,9.4,0,0,0,2.631-.327,10.385,10.385,0,0,0,1.862-.755,11.976,11.976,0,0,0,1.214-.755,1.346,1.346,0,0,1,.648-.347.463.463,0,0,1,.4.2l.526.653a5.435,5.435,0,0,1-1.3,1.143,9.155,9.155,0,0,1-1.781.919,13.19,13.19,0,0,1-2.105.592,11.332,11.332,0,0,1-2.247.225,9.624,9.624,0,0,1-3.765-.715,8.088,8.088,0,0,1-2.915-2.123,9.779,9.779,0,0,1-1.882-3.389,15.108,15.108,0,0,1-.648-4.614A12.752,12.752,0,0,1,29,141.428a9.35,9.35,0,0,1,1.781-3.185,8.185,8.185,0,0,1,2.854-2.1,9.377,9.377,0,0,1,3.846-.755,8.31,8.31,0,0,1,3.158.592,7.087,7.087,0,0,1,2.53,1.735,7.9,7.9,0,0,1,1.68,2.777,10.659,10.659,0,0,1,.627,3.8,1.092,1.092,0,0,1-.121.612.472.472,0,0,1-.4.163Z" transform="translate(-6.136 -125.749)"/><path fill="#cecdcd" d="M60.767,147.039a6.735,6.735,0,0,0,2.307-.367,4.9,4.9,0,0,0,1.7-1.062A4.507,4.507,0,0,0,65.827,144a5.714,5.714,0,0,0,.364-2.082,5.446,5.446,0,0,0-.385-2.082,4.35,4.35,0,0,0-1.073-1.633,4.668,4.668,0,0,0-1.7-1.041,6.5,6.5,0,0,0-2.267-.368,6.67,6.67,0,0,0-2.287.368,4.906,4.906,0,0,0-1.7,1.041,4.473,4.473,0,0,0-1.052,1.633,6.133,6.133,0,0,0,0,4.165,4.507,4.507,0,0,0,1.052,1.613,5.164,5.164,0,0,0,1.7,1.062A6.671,6.671,0,0,0,60.767,147.039ZM68.3,157.39a2.226,2.226,0,0,0-.506-1.531,3.153,3.153,0,0,0-1.316-.919,7.547,7.547,0,0,0-1.923-.449q-1.073-.143-2.267-.2l-2.368-.122a18.637,18.637,0,0,1-2.247-.245,8.646,8.646,0,0,0-1.417.715,4.9,4.9,0,0,0-1.113.9,4.108,4.108,0,0,0-.729,1.1,3.274,3.274,0,0,0-.263,1.307,3.2,3.2,0,0,0,.445,1.654,4.038,4.038,0,0,0,1.336,1.327,7.381,7.381,0,0,0,2.166.9,11.88,11.88,0,0,0,2.935.327,11.164,11.164,0,0,0,2.854-.347,7.786,7.786,0,0,0,2.307-.98,4.83,4.83,0,0,0,1.538-1.511A3.468,3.468,0,0,0,68.3,157.39ZM70.4,136.607v.674q0,.449-.567.551l-3.077.225a5.972,5.972,0,0,1,.87,1.735,6.869,6.869,0,0,1,.3,2.082,6.61,6.61,0,0,1-.526,2.674,5.767,5.767,0,0,1-1.457,2.042,6.635,6.635,0,0,1-2.267,1.307,8.621,8.621,0,0,1-2.915.47,8.88,8.88,0,0,1-3.137-.531A4.431,4.431,0,0,0,56.274,149a2.183,2.183,0,0,0-.486,1.307,1.6,1.6,0,0,0,.607,1.347,4.237,4.237,0,0,0,1.619.694,15.356,15.356,0,0,0,2.287.265q1.3.061,2.631.143,1.336.061,2.611.245a7.927,7.927,0,0,1,2.287.653,3.917,3.917,0,0,1,1.619,1.286,3.494,3.494,0,0,1,.627,2.184,5.051,5.051,0,0,1-.627,2.429,6.373,6.373,0,0,1-1.822,2.062,9.228,9.228,0,0,1-2.854,1.429,12.037,12.037,0,0,1-3.765.551,13.835,13.835,0,0,1-3.724-.449,8.637,8.637,0,0,1-2.692-1.184,5.111,5.111,0,0,1-1.619-1.715,4.21,4.21,0,0,1-.546-2.082,3.925,3.925,0,0,1,1.053-2.756,6.947,6.947,0,0,1,2.874-1.817,4.045,4.045,0,0,1-1.639-1,2.613,2.613,0,0,1-.607-1.817,2.753,2.753,0,0,1,.162-.9,3.552,3.552,0,0,1,.486-.919,4.783,4.783,0,0,1,.789-.878,6.054,6.054,0,0,1,1.053-.735,6.1,6.1,0,0,1-2.247-2.225,6.455,6.455,0,0,1-.789-3.246,6.69,6.69,0,0,1,.506-2.654,5.943,5.943,0,0,1,1.478-2.062,6.712,6.712,0,0,1,2.267-1.327,8.861,8.861,0,0,1,2.955-.47,8.674,8.674,0,0,1,2.449.327,7.259,7.259,0,0,1,2.024.919Z" transform="translate(-9.609 -125.746)"/><path fill="#cecdcd" d="M80.763,124.88v29.7H78.82v-29.7Z" transform="translate(-13.422 -124.309)"/><path fill="#cecdcd" d="M91.093,134.362v20.313H89.171V134.362Zm.83-7a1.542,1.542,0,0,1-.162.694,1.928,1.928,0,0,1-.385.551,1.83,1.83,0,0,1-.567.388,1.728,1.728,0,0,1-1.376,0,1.831,1.831,0,0,1-.567-.388,1.929,1.929,0,0,1-.385-.551,1.771,1.771,0,0,1,0-1.388,1.791,1.791,0,0,1,.385-.592,1.831,1.831,0,0,1,.567-.388,1.728,1.728,0,0,1,1.376,0,1.83,1.83,0,0,1,.567.388,1.79,1.79,0,0,1,.385.592A1.542,1.542,0,0,1,91.923,127.359Z" transform="translate(-14.798 -124.4)"/><path fill="#cecdcd" d="M113.509,143.817a8.543,8.543,0,0,0-.466-2.919,6.1,6.1,0,0,0-1.275-2.2,5.475,5.475,0,0,0-1.984-1.368,6.261,6.261,0,0,0-2.51-.49,7.521,7.521,0,0,0-2.793.49,6.21,6.21,0,0,0-2.145,1.409,7.142,7.142,0,0,0-1.437,2.2,10.334,10.334,0,0,0-.729,2.879Zm-13.44,1.245v.388a13.891,13.891,0,0,0,.526,4.022,8.376,8.376,0,0,0,1.5,2.919,6.225,6.225,0,0,0,2.348,1.756,7.71,7.71,0,0,0,3.077.592,9.4,9.4,0,0,0,2.631-.327,10.385,10.385,0,0,0,1.862-.755,11.98,11.98,0,0,0,1.214-.755,1.346,1.346,0,0,1,.648-.347.463.463,0,0,1,.4.2l.526.653a5.435,5.435,0,0,1-1.3,1.143,9.155,9.155,0,0,1-1.781.919,13.19,13.19,0,0,1-2.1.592,11.332,11.332,0,0,1-2.247.225,9.624,9.624,0,0,1-3.765-.715,8.089,8.089,0,0,1-2.915-2.123,9.779,9.779,0,0,1-1.882-3.389,15.107,15.107,0,0,1-.648-4.614,12.752,12.752,0,0,1,.607-4.022,9.35,9.35,0,0,1,1.781-3.185,8.185,8.185,0,0,1,2.854-2.1,9.376,9.376,0,0,1,3.846-.755,8.31,8.31,0,0,1,3.158.592,7.087,7.087,0,0,1,2.53,1.735,7.9,7.9,0,0,1,1.68,2.777,10.659,10.659,0,0,1,.627,3.8,1.092,1.092,0,0,1-.121.612.472.472,0,0,1-.4.163Z" transform="translate(-16.217 -125.749)"/><path fill="#cecdcd" d="M126.1,140.607a12.835,12.835,0,0,1,1.053-2.2,7.259,7.259,0,0,1,1.376-1.654,5.644,5.644,0,0,1,1.741-1.021,6.02,6.02,0,0,1,2.145-.367,6.23,6.23,0,0,1,1.235.122,2.97,2.97,0,0,1,1.073.388l-.162,1.347a.391.391,0,0,1-.385.327,3.1,3.1,0,0,1-.749-.143,4.738,4.738,0,0,0-1.3-.143,5.537,5.537,0,0,0-2.085.368,4.78,4.78,0,0,0-1.619,1.062,7.14,7.14,0,0,0-1.255,1.776,17.077,17.077,0,0,0-.972,2.409v13.148h-1.943V135.708h1.032a.67.67,0,0,1,.486.143.826.826,0,0,1,.182.49Z" transform="translate(-19.988 -125.745)"/><path fill="#c53e3e" d="M150.716,146.972a26.081,26.081,0,0,0-3.643.388,9.4,9.4,0,0,0-2.368.694,3.118,3.118,0,0,0-1.275,1,2.186,2.186,0,0,0-.385,1.245,2.212,2.212,0,0,0,.769,1.9,3.4,3.4,0,0,0,2.044.572,5.917,5.917,0,0,0,2.652-.551,8.03,8.03,0,0,0,2.206-1.715Zm-11.456-9.085a12.263,12.263,0,0,1,8.622-3.307,8.24,8.24,0,0,1,3.259.612,6.711,6.711,0,0,1,2.429,1.674,6.962,6.962,0,0,1,1.5,2.552,9.75,9.75,0,0,1,.526,3.266v13.229h-2.267a2.371,2.371,0,0,1-1.093-.2,1.536,1.536,0,0,1-.607-.878l-.445-1.511a19.76,19.76,0,0,1-1.538,1.266,9.439,9.439,0,0,1-1.559.9,7.894,7.894,0,0,1-1.741.551,9.269,9.269,0,0,1-2.024.2,8.125,8.125,0,0,1-2.429-.347,5.447,5.447,0,0,1-1.923-1.082,4.811,4.811,0,0,1-1.255-1.776,6.349,6.349,0,0,1-.445-2.47,4.865,4.865,0,0,1,.263-1.572,4.7,4.7,0,0,1,.85-1.511,7.415,7.415,0,0,1,1.558-1.347,10.07,10.07,0,0,1,2.328-1.1,19.706,19.706,0,0,1,3.239-.755,30.74,30.74,0,0,1,4.21-.367v-1.225a4.57,4.57,0,0,0-.891-3.1,3.228,3.228,0,0,0-2.571-1.021,6.147,6.147,0,0,0-2.024.286,7.867,7.867,0,0,0-1.4.653q-.607.347-1.113.633a2.115,2.115,0,0,1-1.093.286,1.471,1.471,0,0,1-.891-.265,2.43,2.43,0,0,1-.587-.653Z" transform="translate(-22.011 -125.638)"/><path fill="#c53e3e" d="M164.023,155.925V134.978h3.056a1.229,1.229,0,0,1,1.275.919l.324,1.552a12.615,12.615,0,0,1,1.133-1.123,7.9,7.9,0,0,1,1.275-.878,6.772,6.772,0,0,1,1.457-.572,6.269,6.269,0,0,1,1.72-.225,4.753,4.753,0,0,1,3.218,1.082,6.346,6.346,0,0,1,1.9,2.838A6.243,6.243,0,0,1,180.6,136.8a6.519,6.519,0,0,1,1.6-1.225,7.347,7.347,0,0,1,1.842-.694,8.957,8.957,0,0,1,1.984-.225,8.228,8.228,0,0,1,3.056.531,5.861,5.861,0,0,1,2.247,1.552,6.74,6.74,0,0,1,1.376,2.491,10.725,10.725,0,0,1,.486,3.369v13.331h-5V142.593a4.465,4.465,0,0,0-.87-3,3.166,3.166,0,0,0-2.55-1.021,3.856,3.856,0,0,0-1.437.265,3.379,3.379,0,0,0-1.923,2.021,4.922,4.922,0,0,0-.283,1.735v13.331h-5.02V142.593a4.551,4.551,0,0,0-.85-3.062,3.062,3.062,0,0,0-2.449-.96,4.009,4.009,0,0,0-2.044.551,6.687,6.687,0,0,0-1.741,1.47v15.332Z" transform="translate(-25.732 -125.648)"/><path fill="#c53e3e" d="M212.671,134.651a11.158,11.158,0,0,1,4.19.755,9.074,9.074,0,0,1,3.238,2.144,9.357,9.357,0,0,1,2.085,3.389,14.145,14.145,0,0,1,0,8.962,9.561,9.561,0,0,1-2.085,3.409,8.945,8.945,0,0,1-3.238,2.164,11.157,11.157,0,0,1-4.19.755,11.372,11.372,0,0,1-4.23-.755,9.143,9.143,0,0,1-3.259-2.164A9.958,9.958,0,0,1,203.1,149.9a14.143,14.143,0,0,1,0-8.962,9.739,9.739,0,0,1,2.085-3.389,9.278,9.278,0,0,1,3.259-2.144A11.373,11.373,0,0,1,212.671,134.651Zm0,17.7A4.356,4.356,0,0,0,216.5,150.6a8.807,8.807,0,0,0,1.255-5.145,8.908,8.908,0,0,0-1.255-5.165,4.337,4.337,0,0,0-3.825-1.776,4.467,4.467,0,0,0-3.906,1.8,11.173,11.173,0,0,0,0,10.289,4.507,4.507,0,0,0,3.906,1.756Z" transform="translate(-31.273 -125.648)"/><path fill="#c53e3e" d="M235.557,138.6a8.9,8.9,0,0,1,2.307-2.94,4.863,4.863,0,0,1,3.157-1.082,3.838,3.838,0,0,1,2.307.633l-.324,3.777a1,1,0,0,1-.3.531.8.8,0,0,1-.506.143,6.029,6.029,0,0,1-.911-.1,6.732,6.732,0,0,0-1.154-.1,4.156,4.156,0,0,0-1.478.245,3.735,3.735,0,0,0-1.174.715,4.932,4.932,0,0,0-.911,1.1,11.737,11.737,0,0,0-.729,1.49v12.9h-5V134.968h2.935a1.224,1.224,0,0,1,1.477,1.266Z" transform="translate(-35.386 -125.638)"/><path fill="#c53e3e" d="M253.585,133.548v20.946h-5.02V133.548Zm.688-6.1a2.894,2.894,0,0,1-.263,1.225,3.277,3.277,0,0,1-.708,1,3.356,3.356,0,0,1-1.012.694,3.225,3.225,0,0,1-1.255.245,3.173,3.173,0,0,1-1.235-.245,3.409,3.409,0,0,1-1.68-1.695,3.1,3.1,0,0,1-.243-1.225,3.3,3.3,0,0,1,.243-1.266,3.387,3.387,0,0,1,.688-1.021,3.131,3.131,0,0,1,.992-.674,2.962,2.962,0,0,1,1.235-.265,3.01,3.01,0,0,1,1.255.265,3.075,3.075,0,0,1,1.012.674,3.209,3.209,0,0,1,.708,1.021A3.081,3.081,0,0,1,254.273,127.444Z" transform="translate(-37.848 -124.218)"/><path fill="#c53e3e" d="M260.506,155.925V134.978h3.056a1.229,1.229,0,0,1,1.275.919l.324,1.552a12.621,12.621,0,0,1,1.133-1.123,7.9,7.9,0,0,1,1.275-.878,6.771,6.771,0,0,1,1.457-.572,6.269,6.269,0,0,1,1.72-.225,4.753,4.753,0,0,1,3.218,1.082,6.346,6.346,0,0,1,1.9,2.838,6.24,6.24,0,0,1,1.215-1.776,6.517,6.517,0,0,1,1.6-1.225,7.348,7.348,0,0,1,1.842-.694,8.955,8.955,0,0,1,1.984-.225,8.228,8.228,0,0,1,3.056.531,5.862,5.862,0,0,1,2.247,1.552,6.739,6.739,0,0,1,1.376,2.491,10.724,10.724,0,0,1,.486,3.369v13.331h-5V142.593a4.465,4.465,0,0,0-.87-3,3.166,3.166,0,0,0-2.55-1.021,3.857,3.857,0,0,0-1.437.265,3.379,3.379,0,0,0-1.923,2.021,4.924,4.924,0,0,0-.283,1.735v13.331h-5.02V142.593a4.55,4.55,0,0,0-.85-3.062,3.062,3.062,0,0,0-2.449-.96,4.009,4.009,0,0,0-2.044.551,6.687,6.687,0,0,0-1.741,1.47v15.332Z" transform="translate(-39.672 -125.648)"/></g><g transform="translate(2.408 168.013)"><path fill="#acacac" d="M6.645,176.112H6.587A4.825,4.825,0,0,0,6.109,176a2.661,2.661,0,0,0-.519-.059,1.43,1.43,0,0,0-1.037.321,1.6,1.6,0,0,0-.318,1.148v.226h2v.939H4.27v5.7H3.162v-5.7H2.413v-.939h.749v-.22a2.574,2.574,0,0,1,.584-1.813,2.173,2.173,0,0,1,1.686-.636,5.591,5.591,0,0,1,.666.036q.3.036.548.083Z" transform="translate(-2.413 -174.97)"/><path fill="#acacac" d="M17.2,179.283h-.059a3.632,3.632,0,0,0-.483-.083,4.351,4.351,0,0,0-.548-.03,2.241,2.241,0,0,0-.99.232,4.453,4.453,0,0,0-.92.589v4.715H13.088v-6.641H14.2v.981a5.364,5.364,0,0,1,1.161-.755,2.511,2.511,0,0,1,1.032-.226,3.434,3.434,0,0,1,.419.018q.13.012.389.053Z" transform="translate(-3.955 -175.394)"/><path fill="#acacac" d="M29.565,181.359a3.747,3.747,0,0,1-.825,2.563,3.084,3.084,0,0,1-4.433,0,4.417,4.417,0,0,1,0-5.125,3.071,3.071,0,0,1,4.433,0A3.748,3.748,0,0,1,29.565,181.359Zm-1.144,0a3.031,3.031,0,0,0-.5-1.915,1.864,1.864,0,0,0-2.794,0,3.894,3.894,0,0,0,.006,3.811,1.834,1.834,0,0,0,2.782.006,3.028,3.028,0,0,0,.507-1.9Z" transform="translate(-5.458 -175.365)"/><path fill="#acacac" d="M43.017,184.677H41.909V180.9a6.5,6.5,0,0,0-.053-.856,1.585,1.585,0,0,0-.195-.63.882.882,0,0,0-.424-.369,1.764,1.764,0,0,0-.719-.125,2.285,2.285,0,0,0-.949.226,4.823,4.823,0,0,0-.949.577v4.959H37.511v-6.641H38.62v.737a4.5,4.5,0,0,1,1.073-.678,2.8,2.8,0,0,1,1.138-.244,2.033,2.033,0,0,1,1.627.648,2.775,2.775,0,0,1,.56,1.867Z" transform="translate(-7.484 -175.365)"/><path fill="#acacac" d="M54.646,184.343a5.955,5.955,0,0,1-.684.137,4.563,4.563,0,0,1-.654.054,2.026,2.026,0,0,1-1.533-.547,2.47,2.47,0,0,1-.525-1.754V178.7H50.5v-.939h.749v-1.909h1.108v1.909h2.287v.939H52.359v3.026q0,.523.024.821a1.34,1.34,0,0,0,.165.547.819.819,0,0,0,.354.351,1.725,1.725,0,0,0,.7.107,2.228,2.228,0,0,0,.566-.077,4.316,4.316,0,0,0,.424-.137h.059Z" transform="translate(-9.361 -175.091)"/><path fill="#acacac" d="M65.589,175.039,61.363,186.1h-1.02l4.209-11.059Z" transform="translate(-10.783 -174.98)"/><path fill="#acacac" d="M78.949,180.92a4.469,4.469,0,0,1-.236,1.5,3.324,3.324,0,0,1-.625,1.118,2.9,2.9,0,0,1-.92.708,2.592,2.592,0,0,1-1.1.232,3.157,3.157,0,0,1-.979-.137,4.4,4.4,0,0,1-.825-.357l-.071.309H73.154V175.04h1.108v3.306a4.549,4.549,0,0,1,.99-.63,2.709,2.709,0,0,1,1.179-.25,2.168,2.168,0,0,1,1.839.9,4.181,4.181,0,0,1,.678,2.551Zm-1.144.03a3.391,3.391,0,0,0-.389-1.8,1.371,1.371,0,0,0-1.256-.618,2.453,2.453,0,0,0-.979.214,3.985,3.985,0,0,0-.92.541v3.805a4.841,4.841,0,0,0,.808.3,3.27,3.27,0,0,0,.772.083,1.791,1.791,0,0,0,1.438-.606,2.9,2.9,0,0,0,.525-1.915Z" transform="translate(-12.634 -174.98)"/><path fill="#acacac" d="M91.89,184.68h-1.1v-.708q-.147.1-.4.285a2.85,2.85,0,0,1-.483.285,3.158,3.158,0,0,1-.637.226,3.319,3.319,0,0,1-.843.1,2.1,2.1,0,0,1-1.509-.595,2.011,2.011,0,0,1-.619-1.516,2.115,2.115,0,0,1,.318-1.219,2.16,2.16,0,0,1,.92-.737,4.91,4.91,0,0,1,1.444-.363q.843-.1,1.81-.143v-.172a1.31,1.31,0,0,0-.136-.63.951.951,0,0,0-.377-.392,1.564,1.564,0,0,0-.566-.184,4.843,4.843,0,0,0-.69-.048,4.532,4.532,0,0,0-.973.119,7.263,7.263,0,0,0-1.108.333h-.059v-1.136q.324-.089.937-.2a7.014,7.014,0,0,1,1.208-.107,5.4,5.4,0,0,1,1.208.119,2.31,2.31,0,0,1,.9.392,1.752,1.752,0,0,1,.566.708,2.631,2.631,0,0,1,.195,1.076Zm-1.1-1.635V181.2q-.507.03-1.2.089a6.114,6.114,0,0,0-1.085.172,1.765,1.765,0,0,0-.772.428,1.049,1.049,0,0,0-.295.791,1.07,1.07,0,0,0,.342.862,1.6,1.6,0,0,0,1.043.285,2.488,2.488,0,0,0,1.067-.226A4.916,4.916,0,0,0,90.788,183.045Z" transform="translate(-14.533 -175.369)"/><path fill="#acacac" d="M105.04,184.265a7.062,7.062,0,0,1-1.055.416,3.651,3.651,0,0,1-1.055.149,3.943,3.943,0,0,1-1.309-.208,2.7,2.7,0,0,1-1.02-.642,2.873,2.873,0,0,1-.666-1.082,4.5,4.5,0,0,1-.236-1.528,3.554,3.554,0,0,1,.884-2.557,3.1,3.1,0,0,1,2.346-.928,3.885,3.885,0,0,1,1.108.161,5.755,5.755,0,0,1,1,.392v1.243h-.059a4.191,4.191,0,0,0-1.049-.612,2.82,2.82,0,0,0-1.049-.214,1.858,1.858,0,0,0-1.491.642,2.818,2.818,0,0,0-.542,1.873,2.85,2.85,0,0,0,.531,1.849,1.851,1.851,0,0,0,1.5.642,2.745,2.745,0,0,0,.684-.089,2.977,2.977,0,0,0,.625-.232q.242-.125.454-.262t.336-.244h.059Z" transform="translate(-16.469 -175.37)"/><path fill="#acacac" d="M118.5,184.291h-1.462l-2.641-2.907-.719.69v2.218h-1.108V175.04h1.108v5.934l3.2-3.324h1.4l-3.059,3.068Z" transform="translate(-18.329 -174.98)"/><path fill="#acacac" d="M141.079,181.472h-4.851a2.875,2.875,0,0,0,.183,1.07,1.972,1.972,0,0,0,1.226,1.171,2.906,2.906,0,0,0,.931.143,3.654,3.654,0,0,0,1.35-.268,3.362,3.362,0,0,0,.973-.535h.059v1.219a9.09,9.09,0,0,1-1.144.4,4.6,4.6,0,0,1-1.226.161,3.521,3.521,0,0,1-2.558-.892,3.394,3.394,0,0,1-.92-2.545,3.678,3.678,0,0,1,.878-2.586,3.013,3.013,0,0,1,2.323-.957,2.642,2.642,0,0,1,2.051.785,3.166,3.166,0,0,1,.725,2.23ZM140,180.616a1.979,1.979,0,0,0-.442-1.362,1.674,1.674,0,0,0-1.315-.482,1.923,1.923,0,0,0-1.421.529,2.07,2.07,0,0,0-.6,1.314Z" transform="translate(-21.584 -175.365)"/><path fill="#acacac" d="M154.465,184.677h-1.108V180.9a6.5,6.5,0,0,0-.053-.856,1.584,1.584,0,0,0-.195-.63.882.882,0,0,0-.424-.369,1.764,1.764,0,0,0-.719-.125,2.285,2.285,0,0,0-.949.226,4.824,4.824,0,0,0-.949.577v4.959H148.96v-6.641h1.108v.737a4.5,4.5,0,0,1,1.073-.678,2.8,2.8,0,0,1,1.138-.244,2.033,2.033,0,0,1,1.627.648,2.775,2.775,0,0,1,.56,1.867Z" transform="translate(-23.586 -175.365)"/><path fill="#acacac" d="M168.061,184.291h-1.108v-.7a4.009,4.009,0,0,1-1,.648,2.727,2.727,0,0,1-1.126.232,2.232,2.232,0,0,1-1.875-.916,4.138,4.138,0,0,1-.69-2.539,4.457,4.457,0,0,1,.236-1.5,3.519,3.519,0,0,1,.648-1.124,2.711,2.711,0,0,1,2.04-.927,3.4,3.4,0,0,1,.92.113,4.111,4.111,0,0,1,.843.339V175.04h1.108Zm-1.108-1.635v-3.811a4.136,4.136,0,0,0-.8-.279,3.619,3.619,0,0,0-.772-.077,1.746,1.746,0,0,0-1.45.654A2.921,2.921,0,0,0,163.41,181a3.327,3.327,0,0,0,.4,1.8,1.423,1.423,0,0,0,1.285.612,2.4,2.4,0,0,0,.955-.208,4.13,4.13,0,0,0,.9-.547Z" transform="translate(-25.509 -174.98)"/><path fill="#acacac" d="M191.63,184.291h-1.108v-.7a4.01,4.01,0,0,1-1,.648,2.727,2.727,0,0,1-1.126.232,2.232,2.232,0,0,1-1.875-.916,4.138,4.138,0,0,1-.69-2.539,4.457,4.457,0,0,1,.236-1.5,3.52,3.52,0,0,1,.648-1.124,2.711,2.711,0,0,1,2.04-.927,3.4,3.4,0,0,1,.92.113,4.112,4.112,0,0,1,.843.339V175.04h1.108Zm-1.108-1.635v-3.811a4.137,4.137,0,0,0-.8-.279,3.619,3.619,0,0,0-.772-.077,1.746,1.746,0,0,0-1.45.654A2.921,2.921,0,0,0,186.98,181a3.327,3.327,0,0,0,.4,1.8,1.423,1.423,0,0,0,1.285.612,2.4,2.4,0,0,0,.955-.208,4.131,4.131,0,0,0,.9-.547Z" transform="translate(-28.914 -174.98)"/><path fill="#acacac" d="M205.5,181.472h-4.851a2.875,2.875,0,0,0,.183,1.07,1.972,1.972,0,0,0,1.226,1.171,2.906,2.906,0,0,0,.931.143,3.654,3.654,0,0,0,1.35-.268,3.363,3.363,0,0,0,.973-.535h.059v1.219a9.093,9.093,0,0,1-1.144.4,4.6,4.6,0,0,1-1.226.161,3.521,3.521,0,0,1-2.558-.892,3.394,3.394,0,0,1-.92-2.545,3.678,3.678,0,0,1,.878-2.586,3.013,3.013,0,0,1,2.323-.957,2.642,2.642,0,0,1,2.051.785,3.166,3.166,0,0,1,.725,2.23Zm-1.079-.856a1.979,1.979,0,0,0-.442-1.362,1.674,1.674,0,0,0-1.315-.482,1.923,1.923,0,0,0-1.421.529,2.069,2.069,0,0,0-.6,1.314Z" transform="translate(-30.892 -175.365)"/><path fill="#acacac" d="M218.951,178.064l-2.664,6.641h-1.114l-2.647-6.641h1.2l2.039,5.286,2.022-5.286Z" transform="translate(-32.77 -175.394)"/><path fill="#acacac" d="M231.962,181.472H227.11a2.875,2.875,0,0,0,.183,1.07,1.972,1.972,0,0,0,1.226,1.171,2.907,2.907,0,0,0,.931.143,3.654,3.654,0,0,0,1.35-.268,3.364,3.364,0,0,0,.973-.535h.059v1.219a9.093,9.093,0,0,1-1.144.4,4.6,4.6,0,0,1-1.226.161,3.521,3.521,0,0,1-2.558-.892,3.394,3.394,0,0,1-.92-2.545,3.677,3.677,0,0,1,.878-2.586,3.013,3.013,0,0,1,2.322-.957,2.642,2.642,0,0,1,2.051.785,3.166,3.166,0,0,1,.725,2.23Zm-1.079-.856a1.979,1.979,0,0,0-.442-1.362,1.674,1.674,0,0,0-1.314-.482,1.923,1.923,0,0,0-1.421.529,2.07,2.07,0,0,0-.6,1.314Z" transform="translate(-34.715 -175.365)"/><path fill="#acacac" d="M240.965,184.291h-1.108V175.04h1.108Z" transform="translate(-36.719 -174.98)"/><path fill="#acacac" d="M254.115,181.359a3.747,3.747,0,0,1-.825,2.563,3.084,3.084,0,0,1-4.433,0,4.417,4.417,0,0,1,0-5.125,3.071,3.071,0,0,1,4.433,0A3.748,3.748,0,0,1,254.115,181.359Zm-1.144,0a3.031,3.031,0,0,0-.5-1.915,1.864,1.864,0,0,0-2.794,0,3.894,3.894,0,0,0,.006,3.811,1.834,1.834,0,0,0,2.782.006A3.028,3.028,0,0,0,252.971,181.359Z" transform="translate(-37.901 -175.365)"/><path fill="#acacac" d="M267.855,181.275a4.547,4.547,0,0,1-.23,1.48,3.24,3.24,0,0,1-.648,1.13,2.746,2.746,0,0,1-.92.684,2.668,2.668,0,0,1-1.114.238,3.575,3.575,0,0,1-.931-.113,3.848,3.848,0,0,1-.843-.351v2.783h-1.108v-9.091h1.108v.7a4.244,4.244,0,0,1,.99-.624,2.781,2.781,0,0,1,1.179-.256,2.155,2.155,0,0,1,1.851.91,4.167,4.167,0,0,1,.666,2.515Zm-1.143.03a3.2,3.2,0,0,0-.407-1.8,1.41,1.41,0,0,0-1.25-.595,2.414,2.414,0,0,0-.961.208,4.332,4.332,0,0,0-.925.547v3.764a4.425,4.425,0,0,0,.807.291,3.514,3.514,0,0,0,.772.077,1.767,1.767,0,0,0,1.444-.63,2.882,2.882,0,0,0,.519-1.867Z" transform="translate(-39.927 -175.365)"/><path fill="#acacac" d="M281.194,181.472h-4.851a2.877,2.877,0,0,0,.183,1.07,1.972,1.972,0,0,0,1.226,1.171,2.906,2.906,0,0,0,.931.143,3.654,3.654,0,0,0,1.35-.268,3.364,3.364,0,0,0,.973-.535h.059v1.219a9.1,9.1,0,0,1-1.144.4,4.6,4.6,0,0,1-1.226.161,3.521,3.521,0,0,1-2.558-.892,3.394,3.394,0,0,1-.92-2.545,3.678,3.678,0,0,1,.878-2.586,3.013,3.013,0,0,1,2.322-.957,2.643,2.643,0,0,1,2.051.785,3.167,3.167,0,0,1,.725,2.23Zm-1.079-.856a1.979,1.979,0,0,0-.442-1.362,1.674,1.674,0,0,0-1.315-.482,1.923,1.923,0,0,0-1.421.529,2.07,2.07,0,0,0-.6,1.314Z" transform="translate(-41.828 -175.365)"/><path fill="#acacac" d="M293.184,179.283h-.059a3.632,3.632,0,0,0-.483-.083,4.353,4.353,0,0,0-.548-.03,2.24,2.24,0,0,0-.99.232,4.453,4.453,0,0,0-.92.589v4.715h-1.108v-6.641h1.108v.981a5.362,5.362,0,0,1,1.161-.755,2.511,2.511,0,0,1,1.032-.226,3.435,3.435,0,0,1,.419.018q.13.012.389.053Z" transform="translate(-43.83 -175.394)"/></g></g></svg>