<svg xmlns="http://www.w3.org/2000/svg" viewBox="909 1162 184.939 28"><g transform="translate(906.622 1037.782)"><g transform="translate(2.378 124.218)"><path fill="#cecdcd" d="M13.413,135.059a5.1,5.1,0,0,0-1.9-1.827,5.122,5.122,0,0,0-2.366-.529,5.191,5.191,0,0,0-2.306.483,4.584,4.584,0,0,0-1.662,1.374,6.276,6.276,0,0,0-1,2.114,10.386,10.386,0,0,0-.329,2.7,8.134,8.134,0,0,0,1.213,4.939,4.218,4.218,0,0,0,3.534,1.571,4.9,4.9,0,0,0,2.68-.77,7.317,7.317,0,0,0,2.141-2.16Zm1.422-10.179v21.974h-.779a.411.411,0,0,1-.449-.393l-.15-2.371a7.959,7.959,0,0,1-2.306,2.16,5.6,5.6,0,0,1-2.965.8,5.163,5.163,0,0,1-4.282-1.918q-1.527-1.918-1.527-5.754a10.78,10.78,0,0,1,.419-3.066,7.409,7.409,0,0,1,1.258-2.477,5.9,5.9,0,0,1,2.021-1.661,6.166,6.166,0,0,1,2.785-.6,5.753,5.753,0,0,1,2.62.559,5.5,5.5,0,0,1,1.932,1.661v-8.91Z" transform="translate(-2.378 -124.457)"/><path fill="#cecdcd" d="M39.741,141.622a6.32,6.32,0,0,0-.344-2.16,4.511,4.511,0,0,0-.943-1.631,4.05,4.05,0,0,0-1.467-1.012,4.631,4.631,0,0,0-1.857-.362,5.564,5.564,0,0,0-2.066.362,4.594,4.594,0,0,0-1.587,1.042,5.283,5.283,0,0,0-1.063,1.631,7.644,7.644,0,0,0-.539,2.129Zm-9.942.921v.287a10.276,10.276,0,0,0,.389,2.975,6.2,6.2,0,0,0,1.108,2.16,4.6,4.6,0,0,0,1.737,1.3,5.7,5.7,0,0,0,2.276.438,6.955,6.955,0,0,0,1.946-.242,7.681,7.681,0,0,0,1.378-.559,8.856,8.856,0,0,0,.9-.559,1,1,0,0,1,.479-.257.343.343,0,0,1,.3.151l.389.483a4.02,4.02,0,0,1-.958.846,6.771,6.771,0,0,1-1.318.68,9.757,9.757,0,0,1-1.557.438,8.383,8.383,0,0,1-1.662.166,7.12,7.12,0,0,1-2.785-.529,5.983,5.983,0,0,1-2.156-1.571,7.234,7.234,0,0,1-1.392-2.507,11.176,11.176,0,0,1-.479-3.413,9.434,9.434,0,0,1,.449-2.975,6.917,6.917,0,0,1,1.318-2.356,6.055,6.055,0,0,1,2.111-1.556,6.936,6.936,0,0,1,2.845-.559,6.147,6.147,0,0,1,2.336.438,5.242,5.242,0,0,1,1.872,1.284,5.844,5.844,0,0,1,1.243,2.054,7.885,7.885,0,0,1,.464,2.809.808.808,0,0,1-.09.453.349.349,0,0,1-.3.121Z" transform="translate(-11.928 -128.257)"/><path fill="#cecdcd" d="M58.6,144a4.983,4.983,0,0,0,1.707-.272,3.624,3.624,0,0,0,1.258-.785,3.334,3.334,0,0,0,.779-1.193,4.227,4.227,0,0,0,.27-1.54,4.029,4.029,0,0,0-.284-1.54,3.218,3.218,0,0,0-.794-1.208,3.454,3.454,0,0,0-1.258-.77,4.807,4.807,0,0,0-1.677-.272,4.934,4.934,0,0,0-1.692.272,3.63,3.63,0,0,0-1.258.77,3.309,3.309,0,0,0-.779,1.208,4.537,4.537,0,0,0,0,3.081,3.334,3.334,0,0,0,.779,1.193,3.82,3.82,0,0,0,1.258.785A4.935,4.935,0,0,0,58.6,144Zm5.57,7.657a1.647,1.647,0,0,0-.374-1.133,2.332,2.332,0,0,0-.973-.68,5.582,5.582,0,0,0-1.422-.332q-.794-.106-1.677-.151l-1.752-.091a13.787,13.787,0,0,1-1.662-.181,6.4,6.4,0,0,0-1.048.529,3.626,3.626,0,0,0-.824.665,3.039,3.039,0,0,0-.539.816,2.422,2.422,0,0,0-.195.967,2.365,2.365,0,0,0,.329,1.223,2.988,2.988,0,0,0,.988.982,5.46,5.46,0,0,0,1.6.665,8.788,8.788,0,0,0,2.171.242,8.259,8.259,0,0,0,2.111-.257,5.759,5.759,0,0,0,1.707-.725,3.573,3.573,0,0,0,1.138-1.118A2.566,2.566,0,0,0,64.167,151.657Zm1.557-15.374v.5q0,.332-.419.408l-2.276.166a4.418,4.418,0,0,1,.644,1.284,5.082,5.082,0,0,1,.225,1.54,4.89,4.89,0,0,1-.389,1.978,4.266,4.266,0,0,1-1.078,1.51,4.908,4.908,0,0,1-1.677.967,6.377,6.377,0,0,1-2.156.347,6.569,6.569,0,0,1-2.321-.393,3.278,3.278,0,0,0-1,.861,1.615,1.615,0,0,0-.359.967,1.185,1.185,0,0,0,.449,1,3.134,3.134,0,0,0,1.2.513,11.36,11.36,0,0,0,1.692.2q.958.045,1.946.106.988.045,1.932.181a5.864,5.864,0,0,1,1.692.483,2.9,2.9,0,0,1,1.2.951,2.585,2.585,0,0,1,.464,1.616,3.737,3.737,0,0,1-.464,1.8,4.714,4.714,0,0,1-1.348,1.525,6.826,6.826,0,0,1-2.111,1.057,8.9,8.9,0,0,1-2.785.408,10.234,10.234,0,0,1-2.755-.332,6.389,6.389,0,0,1-1.991-.876,3.781,3.781,0,0,1-1.2-1.269,3.115,3.115,0,0,1-.4-1.54,2.9,2.9,0,0,1,.779-2.039,5.139,5.139,0,0,1,2.126-1.344,2.992,2.992,0,0,1-1.213-.74,1.933,1.933,0,0,1-.449-1.344,2.037,2.037,0,0,1,.12-.665,2.628,2.628,0,0,1,.359-.68,3.538,3.538,0,0,1,.584-.649,4.478,4.478,0,0,1,.779-.544,4.516,4.516,0,0,1-1.662-1.646,4.775,4.775,0,0,1-.584-2.4,4.949,4.949,0,0,1,.374-1.963,4.4,4.4,0,0,1,1.093-1.525,4.965,4.965,0,0,1,1.677-.982,6.555,6.555,0,0,1,2.186-.347,6.416,6.416,0,0,1,1.812.242,5.37,5.37,0,0,1,1.5.68Z" transform="translate(-20.753 -128.248)"/><path fill="#cecdcd" d="M80.258,124.88v21.974H78.82V124.88Z" transform="translate(-30.442 -124.457)"/><path fill="#cecdcd" d="M90.377,132.067v15.027H88.955V132.067Zm.614-5.18a1.141,1.141,0,0,1-.12.513,1.426,1.426,0,0,1-.284.408,1.354,1.354,0,0,1-.419.287,1.278,1.278,0,0,1-1.018,0,1.354,1.354,0,0,1-.419-.287,1.427,1.427,0,0,1-.284-.408,1.31,1.31,0,0,1,0-1.027,1.325,1.325,0,0,1,.284-.438,1.355,1.355,0,0,1,.419-.287,1.279,1.279,0,0,1,1.018,0,1.354,1.354,0,0,1,.419.287,1.324,1.324,0,0,1,.284.438A1.141,1.141,0,0,1,90.991,126.887Z" transform="translate(-33.937 -124.697)"/><path fill="#cecdcd" d="M109.516,141.622a6.32,6.32,0,0,0-.344-2.16,4.511,4.511,0,0,0-.943-1.631,4.05,4.05,0,0,0-1.467-1.012,4.631,4.631,0,0,0-1.857-.362,5.564,5.564,0,0,0-2.066.362,4.594,4.594,0,0,0-1.587,1.042,5.283,5.283,0,0,0-1.063,1.631,7.644,7.644,0,0,0-.539,2.129Zm-9.942.921v.287a10.276,10.276,0,0,0,.389,2.975,6.2,6.2,0,0,0,1.108,2.16,4.6,4.6,0,0,0,1.737,1.3,5.7,5.7,0,0,0,2.276.438,6.955,6.955,0,0,0,1.946-.242,7.681,7.681,0,0,0,1.378-.559,8.859,8.859,0,0,0,.9-.559,1,1,0,0,1,.479-.257.343.343,0,0,1,.3.151l.389.483a4.021,4.021,0,0,1-.958.846,6.771,6.771,0,0,1-1.318.68,9.757,9.757,0,0,1-1.557.438,8.383,8.383,0,0,1-1.662.166,7.12,7.12,0,0,1-2.785-.529,5.984,5.984,0,0,1-2.156-1.571,7.234,7.234,0,0,1-1.392-2.507,11.176,11.176,0,0,1-.479-3.413,9.433,9.433,0,0,1,.449-2.975,6.917,6.917,0,0,1,1.318-2.356,6.055,6.055,0,0,1,2.111-1.556,6.936,6.936,0,0,1,2.845-.559,6.147,6.147,0,0,1,2.336.438,5.243,5.243,0,0,1,1.872,1.284,5.844,5.844,0,0,1,1.243,2.054,7.885,7.885,0,0,1,.464,2.809.808.808,0,0,1-.09.453.349.349,0,0,1-.3.121Z" transform="translate(-37.544 -128.257)"/><path fill="#cecdcd" d="M125.624,139.242a9.494,9.494,0,0,1,.779-1.631,5.37,5.37,0,0,1,1.018-1.223,4.175,4.175,0,0,1,1.288-.755,4.453,4.453,0,0,1,1.587-.272,4.609,4.609,0,0,1,.913.091,2.2,2.2,0,0,1,.794.287l-.12,1a.29.29,0,0,1-.284.242,2.288,2.288,0,0,1-.554-.106,3.505,3.505,0,0,0-.958-.106,4.1,4.1,0,0,0-1.542.272,3.536,3.536,0,0,0-1.2.785,5.282,5.282,0,0,0-.928,1.314,12.633,12.633,0,0,0-.719,1.782v9.726h-1.437V135.617h.764a.5.5,0,0,1,.359.106.611.611,0,0,1,.135.362Z" transform="translate(-47.124 -128.248)"/><path fill="#c53e3e" d="M147.476,143.747a19.291,19.291,0,0,0-2.7.287,6.953,6.953,0,0,0-1.752.513,2.306,2.306,0,0,0-.943.74,1.617,1.617,0,0,0-.284.921,1.636,1.636,0,0,0,.569,1.4,2.517,2.517,0,0,0,1.512.423,4.377,4.377,0,0,0,1.962-.408,5.94,5.94,0,0,0,1.632-1.269ZM139,137.027a9.072,9.072,0,0,1,6.378-2.447,6.1,6.1,0,0,1,2.411.453,4.965,4.965,0,0,1,1.8,1.238,5.15,5.15,0,0,1,1.108,1.888,7.213,7.213,0,0,1,.389,2.416v9.786h-1.677a1.754,1.754,0,0,1-.809-.151,1.137,1.137,0,0,1-.449-.649l-.329-1.118a14.617,14.617,0,0,1-1.138.936,6.983,6.983,0,0,1-1.153.665,5.838,5.838,0,0,1-1.288.408,6.856,6.856,0,0,1-1.5.151,6.01,6.01,0,0,1-1.8-.257,4.029,4.029,0,0,1-1.422-.8,3.559,3.559,0,0,1-.928-1.314,4.7,4.7,0,0,1-.329-1.827,3.6,3.6,0,0,1,.195-1.163,3.475,3.475,0,0,1,.629-1.118,5.485,5.485,0,0,1,1.153-1,7.45,7.45,0,0,1,1.722-.816,14.58,14.58,0,0,1,2.4-.559,22.738,22.738,0,0,1,3.114-.272v-.906a3.381,3.381,0,0,0-.659-2.3,2.388,2.388,0,0,0-1.9-.755,4.547,4.547,0,0,0-1.5.211,5.82,5.82,0,0,0-1.033.483l-.824.468a1.564,1.564,0,0,1-.809.211,1.088,1.088,0,0,1-.659-.2,1.8,1.8,0,0,1-.434-.483Z" transform="translate(-52.266 -127.965)"/><path fill="#c53e3e" d="M164.023,150.388v-15.5h2.261a.909.909,0,0,1,.943.68l.24,1.148a9.332,9.332,0,0,1,.838-.831,5.845,5.845,0,0,1,.943-.649,5.009,5.009,0,0,1,1.078-.423,4.638,4.638,0,0,1,1.273-.166,3.516,3.516,0,0,1,2.381.8,4.694,4.694,0,0,1,1.407,2.1,4.618,4.618,0,0,1,.9-1.314,4.823,4.823,0,0,1,1.183-.906,5.435,5.435,0,0,1,1.362-.513,6.626,6.626,0,0,1,1.467-.166,6.087,6.087,0,0,1,2.261.393,4.336,4.336,0,0,1,1.662,1.148,4.986,4.986,0,0,1,1.018,1.843,7.934,7.934,0,0,1,.359,2.492v9.862h-3.7v-9.862a3.3,3.3,0,0,0-.644-2.22,2.342,2.342,0,0,0-1.887-.755,2.853,2.853,0,0,0-1.063.2,2.5,2.5,0,0,0-1.422,1.5,3.641,3.641,0,0,0-.21,1.284v9.862h-3.713v-9.862a3.366,3.366,0,0,0-.629-2.265,2.265,2.265,0,0,0-1.812-.71,2.966,2.966,0,0,0-1.512.408,4.947,4.947,0,0,0-1.288,1.087v11.342Z" transform="translate(-61.722 -127.991)"/><path fill="#c53e3e" d="M209.99,134.651a8.254,8.254,0,0,1,3.1.559,6.713,6.713,0,0,1,2.4,1.586,6.921,6.921,0,0,1,1.542,2.507,10.464,10.464,0,0,1,0,6.63,7.073,7.073,0,0,1-1.542,2.522,6.617,6.617,0,0,1-2.4,1.6,8.254,8.254,0,0,1-3.1.559,8.413,8.413,0,0,1-3.129-.559,6.764,6.764,0,0,1-2.411-1.6,7.366,7.366,0,0,1-1.542-2.522,10.463,10.463,0,0,1,0-6.63,7.2,7.2,0,0,1,1.542-2.507,6.863,6.863,0,0,1,2.411-1.586A8.413,8.413,0,0,1,209.99,134.651Zm0,13.094a3.222,3.222,0,0,0,2.83-1.3,6.515,6.515,0,0,0,.928-3.806,6.59,6.59,0,0,0-.928-3.821,3.208,3.208,0,0,0-2.83-1.314,3.3,3.3,0,0,0-2.89,1.329,8.265,8.265,0,0,0,0,7.612,3.334,3.334,0,0,0,2.89,1.3Z" transform="translate(-75.799 -127.991)"/><path fill="#c53e3e" d="M234.329,137.555a6.586,6.586,0,0,1,1.707-2.175,3.6,3.6,0,0,1,2.336-.8,2.839,2.839,0,0,1,1.707.468l-.24,2.794a.741.741,0,0,1-.225.393.593.593,0,0,1-.374.106,4.46,4.46,0,0,1-.674-.076,4.98,4.98,0,0,0-.854-.075,3.075,3.075,0,0,0-1.093.181,2.763,2.763,0,0,0-.868.529,3.649,3.649,0,0,0-.674.816,8.683,8.683,0,0,0-.539,1.1v9.545h-3.7v-15.5h2.171a.905.905,0,0,1,1.093.936Z" transform="translate(-86.252 -127.966)"/><path fill="#c53e3e" d="M252.1,131.12v15.5h-3.713v-15.5Zm.509-4.516a2.141,2.141,0,0,1-.195.906,2.424,2.424,0,0,1-.524.74,2.483,2.483,0,0,1-.749.513,2.385,2.385,0,0,1-.928.181,2.347,2.347,0,0,1-.913-.181,2.522,2.522,0,0,1-1.243-1.254,2.293,2.293,0,0,1-.18-.906,2.443,2.443,0,0,1,.18-.936,2.506,2.506,0,0,1,.509-.755,2.317,2.317,0,0,1,.734-.5,2.192,2.192,0,0,1,.913-.2,2.227,2.227,0,0,1,.928.2,2.275,2.275,0,0,1,.749.5,2.374,2.374,0,0,1,.524.755A2.279,2.279,0,0,1,252.609,126.6Z" transform="translate(-92.507 -124.218)"/><path fill="#c53e3e" d="M260.506,150.388v-15.5h2.261a.909.909,0,0,1,.943.68l.24,1.148a9.338,9.338,0,0,1,.838-.831,5.844,5.844,0,0,1,.943-.649,5.009,5.009,0,0,1,1.078-.423,4.638,4.638,0,0,1,1.273-.166,3.516,3.516,0,0,1,2.381.8,4.694,4.694,0,0,1,1.407,2.1,4.617,4.617,0,0,1,.9-1.314,4.822,4.822,0,0,1,1.183-.906,5.436,5.436,0,0,1,1.363-.513,6.625,6.625,0,0,1,1.467-.166,6.087,6.087,0,0,1,2.261.393,4.336,4.336,0,0,1,1.662,1.148,4.985,4.985,0,0,1,1.018,1.843,7.933,7.933,0,0,1,.359,2.492v9.862h-3.7v-9.862a3.3,3.3,0,0,0-.644-2.22,2.342,2.342,0,0,0-1.887-.755,2.853,2.853,0,0,0-1.063.2,2.5,2.5,0,0,0-1.422,1.5,3.642,3.642,0,0,0-.21,1.284v9.862h-3.713v-9.862a3.366,3.366,0,0,0-.629-2.265,2.265,2.265,0,0,0-1.812-.71,2.966,2.966,0,0,0-1.512.408,4.948,4.948,0,0,0-1.288,1.087v11.342Z" transform="translate(-97.143 -127.991)"/></g></g></svg>