<svg xmlns="http://www.w3.org/2000/svg" viewBox="1623.4 1167 21.6 18"><g transform="translate(1540.4 1021)"><g transform="translate(83 146)"><path fill="#acacac" d="M21.6,2.9a.85.85,0,0,0-.9-.9H.9a.85.85,0,0,0-.9.9V4.7a.85.85,0,0,0,.9.9H20.7a.85.85,0,0,0,.9-.9Z" transform="translate(0 -2)"/><path fill="#acacac" d="M21.6,10.9a.85.85,0,0,0-.9-.9H.9a.85.85,0,0,0-.9.9v1.8a.85.85,0,0,0,.9.9H20.7a.85.85,0,0,0,.9-.9Z" transform="translate(0 -2.8)"/><path fill="#acacac" d="M21.6,18.9a.85.85,0,0,0-.9-.9H.9a.85.85,0,0,0-.9.9v1.8a.85.85,0,0,0,.9.9H20.7a.85.85,0,0,0,.9-.9Z" transform="translate(0 -3.6)"/></g></g></svg>