<svg xmlns="http://www.w3.org/2000/svg" viewBox="908 2148 21.309 17"><g transform="translate(908 2093.181)"><g transform="translate(0 54.819)"><path fill="#fff" d="M17,64.873a1.437,1.437,0,0,0-.415-1.021L8.562,55.84a3.474,3.474,0,0,0-1.145-.724,3.466,3.466,0,0,0-1.313-.3H1.436a1.381,1.381,0,0,0-1.01.426A1.38,1.38,0,0,0,0,56.255v4.668a3.464,3.464,0,0,0,.3,1.313,3.347,3.347,0,0,0,.724,1.133L9.044,71.4a1.375,1.375,0,0,0,1.01.415,1.437,1.437,0,0,0,1.021-.415l5.51-5.521A1.375,1.375,0,0,0,17,64.873ZM4.606,59.425a1.384,1.384,0,0,1-1.016.421,1.436,1.436,0,0,1,0-2.873,1.436,1.436,0,0,1,1.016,2.452Z" transform="translate(0 -54.819)"/><path fill="#fff" d="M213.99,63.856l-8.023-8.012a3.976,3.976,0,0,0-2.457-1.021H201a3.977,3.977,0,0,1,2.457,1.021l8.023,8.012a1.437,1.437,0,0,1,.415,1.021,1.374,1.374,0,0,1-.415,1.01L206.2,71.161a3.2,3.2,0,0,0,.595.5,1.257,1.257,0,0,0,.662.157,1.436,1.436,0,0,0,1.021-.415l5.51-5.521a1.374,1.374,0,0,0,.415-1.01A1.437,1.437,0,0,0,213.99,63.856Z" transform="translate(-193.096 -54.823)"/></g></g></svg>