<svg xmlns="http://www.w3.org/2000/svg" viewBox="1816 380 22.563 18"><g transform="translate(1816 325.181)"><g transform="translate(0 54.819)"><path fill="#acacac" d="M18,65.465a1.522,1.522,0,0,0-.44-1.081L9.065,55.9a3.678,3.678,0,0,0-1.212-.766,3.67,3.67,0,0,0-1.39-.315H1.521a1.462,1.462,0,0,0-1.069.451A1.461,1.461,0,0,0,0,56.34v4.943a3.668,3.668,0,0,0,.315,1.39,3.544,3.544,0,0,0,.766,1.2l8.5,8.507a1.455,1.455,0,0,0,1.069.44,1.522,1.522,0,0,0,1.081-.44l5.834-5.846A1.456,1.456,0,0,0,18,65.465ZM4.877,59.7a1.466,1.466,0,0,1-1.075.446,1.521,1.521,0,0,1,0-3.042,1.521,1.521,0,0,1,1.075,2.6Z" transform="translate(0 -54.819)"/><path fill="#acacac" d="M214.754,64.387l-8.5-8.483a4.21,4.21,0,0,0-2.6-1.081H201a4.211,4.211,0,0,1,2.6,1.081l8.495,8.483a1.521,1.521,0,0,1,.44,1.081,1.455,1.455,0,0,1-.44,1.069l-5.584,5.584a3.39,3.39,0,0,0,.63.535,1.331,1.331,0,0,0,.7.166,1.52,1.52,0,0,0,1.081-.44l5.834-5.846a1.455,1.455,0,0,0,.44-1.069A1.522,1.522,0,0,0,214.754,64.387Z" transform="translate(-192.632 -54.823)"/></g></g></svg>