<svg xmlns="http://www.w3.org/2000/svg" viewBox="1214 2871 48 48"><g transform="translate(1214 2871)"><path fill="#2cb742" d="M0,48,4.128,35.617a23.584,23.584,0,1,1,9.312,8.847Z"/><path fill="#fff" d="M41.531,33.16c-1.089-2.058-5.105-4.412-5.105-4.412-.909-.518-2.005-.576-2.523.348a20.8,20.8,0,0,1-1.637,1.79,3.051,3.051,0,0,1-4.338-.43l-3.295-3.295-3.295-3.295a3.051,3.051,0,0,1-.43-4.338,20.8,20.8,0,0,1,1.79-1.637c.924-.519.866-1.615.348-2.523,0,0-2.354-4.016-4.412-5.105a2.256,2.256,0,0,0-2.651.4l-1.455,1.455c-4.615,4.615-2.343,9.826,2.273,14.441l4.218,4.218,4.218,4.218c4.615,4.615,9.826,6.888,14.441,2.273l1.455-1.455A2.258,2.258,0,0,0,41.531,33.16Z" transform="translate(-2.069 -1.724)"/></g></svg>